<?xml version="1.0" encoding="utf-8"?>
<!-- Generator: Adobe Illustrator 20.1.0, SVG Export Plug-In . SVG Version: 6.00 Build 0)  -->
<svg version="1.1" id="Layer_1" xmlns="http://www.w3.org/2000/svg" xmlns:xlink="http://www.w3.org/1999/xlink" x="0px" y="0px"
	 viewBox="0 0 1920 1080" style="enable-background:new 0 0 1920 1080;" xml:space="preserve">
<style type="text/css">
	.st0{clip-path:url(#SVGID_2_);fill:#D14B27;}
	.st1{clip-path:url(#SVGID_4_);fill:none;stroke:#D9D9D8;stroke-linejoin:round;stroke-miterlimit:10;}
	.st2{clip-path:url(#SVGID_6_);}
	.st3{font-family:'Helvetica';}
	.st4{font-size:32.3502px;}
	.st5{clip-path:url(#SVGID_8_);}
	.st6{clip-path:url(#SVGID_10_);}
	.st7{clip-path:url(#SVGID_12_);}
	.st8{clip-path:url(#SVGID_14_);}
	.st9{clip-path:url(#SVGID_16_);}
	.st10{clip-path:url(#SVGID_18_);}
	.st11{font-size:36.5734px;}
	.st12{letter-spacing:-1.1;}
	.st13{clip-path:url(#SVGID_20_);}
	.st14{letter-spacing:1.1;}
	.st15{clip-path:url(#SVGID_22_);}
	.st16{clip-path:url(#SVGID_24_);}
	.st17{clip-path:url(#SVGID_26_);}
	.st18{clip-path:url(#SVGID_28_);}
	.st19{clip-path:url(#SVGID_30_);}
	.st20{clip-path:url(#SVGID_32_);}
	.st21{clip-path:url(#SVGID_34_);}
	.st22{clip-path:url(#SVGID_36_);}
	.st23{clip-path:url(#SVGID_38_);}
	.st24{clip-path:url(#SVGID_40_);}
	.st25{clip-path:url(#SVGID_42_);}
	.st26{clip-path:url(#SVGID_44_);}
	.st27{clip-path:url(#SVGID_46_);}
	.st28{clip-path:url(#SVGID_48_);}
	.st29{letter-spacing:5.7;}
	.st30{clip-path:url(#SVGID_50_);}
	.st31{clip-path:url(#SVGID_52_);}
	.st32{clip-path:url(#SVGID_54_);}
	.st33{clip-path:url(#SVGID_56_);}
	.st34{clip-path:url(#SVGID_58_);}
	.st35{clip-path:url(#SVGID_60_);}
	.st36{clip-path:url(#SVGID_62_);}
	.st37{clip-path:url(#SVGID_64_);}
	.st38{clip-path:url(#SVGID_66_);}
	.st39{clip-path:url(#SVGID_68_);}
	.st40{clip-path:url(#SVGID_70_);}
	.st41{fill:#595A5A;}
	.st42{font-size:50.3226px;}
	.st43{letter-spacing:-2.7;}
	.st44{letter-spacing:0.9;}
</style>
<g>
	<defs>
		<rect id="SVGID_1_" x="265.7" y="326.4" width="1308.5" height="305.5"/>
	</defs>
	<clipPath id="SVGID_2_">
		<use xlink:href="#SVGID_1_"  style="overflow:visible;"/>
	</clipPath>
	<path class="st0" d="M1557.9,502.5h8.1v129.4h-8.1V502.5z M1533.5,470.2h8.1v161.8h-8.1V470.2z M1505.1,409h8.1v222.9h-8.1V409z
		 M1480.7,498.9h8.1v133h-8.1V498.9z M1456.3,459.4h8.1v172.5h-8.1V459.4z M1427.9,495.3h8.1v136.6h-8.1V495.3z M1403.5,491.7h8.1
		v140.2h-8.1V491.7z M1379.1,401.9h8.1v230h-8.1V401.9z M1350.7,383.9h8.1v248h-8.1V383.9z M1326.3,470.2h8.1v161.8h-8.1V470.2z
		 M1301.9,369.5h8.1v262.4h-8.1V369.5z M1273.5,470.2h8.1v161.8h-8.1V470.2z M1249.1,466.6h8.1v165.3h-8.1V466.6z M1224.7,513.3h8.1
		v118.6h-8.1V513.3z M1200.3,419.8h8.1v212.1h-8.1V419.8z M1171.9,419.8h8.1v212.1h-8.1V419.8z M1147.5,445h8.1v186.9h-8.1V445z
		 M1123.1,437.8h8.1v194.1h-8.1V437.8z M1094.7,455.8h8.1v176.1h-8.1V455.8z M1070.3,455.8h8.1v176.1h-8.1V455.8z M1045.9,509.7h8.1
		v122.2h-8.1V509.7z M1017.4,445h8.1v186.9h-8.1V445z M993.1,405.5h8.1v226.5h-8.1V405.5z M968.7,463h8.1v168.9h-8.1V463z
		 M940.2,459.4h8.1v172.5h-8.1V459.4z M915.9,466.6h8.1v165.3h-8.1V466.6z M891.5,369.5h8.1v262.4h-8.1V369.5z M867.1,463h8.1v168.9
		h-8.1V463z M838.6,452.2h8.1v179.7h-8.1V452.2z M814.3,455.8h8.1v176.1h-8.1V455.8z M789.9,448.6h8.1v183.3h-8.1V448.6z
		 M761.4,480.9h8.1v151h-8.1V480.9z M737,376.7h8.1v255.2H737V376.7z M712.7,394.7h8.1v237.2h-8.1V394.7z M684.2,459.4h8.1v172.5
		h-8.1V459.4z M659.8,466.6h8.1v165.3h-8.1V466.6z M635.5,459.4h8.1v172.5h-8.1V459.4z M607,398.3h8.1v233.6H607V398.3z
		 M582.6,502.5h8.1v129.4h-8.1V502.5z M558.2,491.7h8.1v140.2h-8.1V491.7z M533.9,430.6h8.1v201.3h-8.1V430.6z M505.4,470.2h8.1
		v161.8h-8.1V470.2z M481,373.1h8.1v258.8H481V373.1z M456.7,427h8.1v204.9h-8.1V427z M428.2,448.6h8.1v183.3h-8.1V448.6z
		 M403.8,498.9h8.1v133h-8.1V498.9z M379.4,448.6h8.1v183.3h-8.1V448.6z M351,391.1h8.1v240.8H351V391.1z M326.6,391.1h8.1v240.8
		h-8.1V391.1z M302.2,463h8.1v168.9h-8.1V463z M273.8,405.5h8.1v226.5h-8.1V405.5z"/>
</g>
<g>
	<defs>
		<rect id="SVGID_3_" x="160" y="179" width="1462.9" height="776.4"/>
	</defs>
	<clipPath id="SVGID_4_">
		<use xlink:href="#SVGID_3_"  style="overflow:visible;"/>
	</clipPath>
	<line class="st1" x1="267.7" y1="633.7" x2="1572.1" y2="633.7"/>
</g>
<g>
	<defs>
		<rect id="SVGID_5_" x="160" y="179" width="1462.9" height="776.4"/>
	</defs>
	<clipPath id="SVGID_6_">
		<use xlink:href="#SVGID_5_"  style="overflow:visible;"/>
	</clipPath>
	<g class="st2">
		<text transform="matrix(1.1305 0 0 1 210.7642 644.8438)" class="st3 st4">0</text>
	</g>
</g>
<g>
	<defs>
		<rect id="SVGID_7_" x="160" y="179" width="1462.9" height="776.4"/>
	</defs>
	<clipPath id="SVGID_8_">
		<use xlink:href="#SVGID_7_"  style="overflow:visible;"/>
	</clipPath>
	<g class="st5">
		<text transform="matrix(1.1305 0 0 1 210.7642 584.2021)" class="st3 st4">5</text>
	</g>
</g>
<g>
	<defs>
		<rect id="SVGID_9_" x="160" y="179" width="1462.9" height="776.4"/>
	</defs>
	<clipPath id="SVGID_10_">
		<use xlink:href="#SVGID_9_"  style="overflow:visible;"/>
	</clipPath>
	<g class="st6">
		<text transform="matrix(1.1305 0 0 1 192.4575 523.563)" class="st3 st4">10</text>
	</g>
</g>
<g>
	<defs>
		<rect id="SVGID_11_" x="160" y="179" width="1462.9" height="776.4"/>
	</defs>
	<clipPath id="SVGID_12_">
		<use xlink:href="#SVGID_11_"  style="overflow:visible;"/>
	</clipPath>
	<g class="st7">
		<text transform="matrix(1.1305 0 0 1 192.4575 462.9224)" class="st3 st4">15</text>
	</g>
</g>
<g>
	<defs>
		<rect id="SVGID_13_" x="160" y="179" width="1462.9" height="776.4"/>
	</defs>
	<clipPath id="SVGID_14_">
		<use xlink:href="#SVGID_13_"  style="overflow:visible;"/>
	</clipPath>
	<g class="st8">
		<text transform="matrix(1.1305 0 0 1 192.4575 402.2837)" class="st3 st4">20</text>
	</g>
</g>
<g>
	<defs>
		<rect id="SVGID_15_" x="160" y="179" width="1462.9" height="776.4"/>
	</defs>
	<clipPath id="SVGID_16_">
		<use xlink:href="#SVGID_15_"  style="overflow:visible;"/>
	</clipPath>
	<g class="st9">
		<text transform="matrix(1.1305 0 0 1 192.4575 341.6421)" class="st3 st4">25</text>
	</g>
</g>
<g>
	<defs>
		<rect id="SVGID_17_" x="257.8" y="269.8" width="43.9" height="685.6"/>
	</defs>
	<clipPath id="SVGID_18_">
		<use xlink:href="#SVGID_17_"  style="overflow:visible;"/>
	</clipPath>
	<g class="st10">
		<text transform="matrix(-1.224647e-16 -0.8845 1 -1.083235e-16 294.3345 779.7461)"><tspan x="0" y="0" class="st3 st11">Alaba</tspan><tspan x="93.5" y="0" class="st3 st11 st12">m</tspan><tspan x="122" y="0" class="st3 st11">a</tspan></text>
	</g>
</g>
<g>
	<defs>
		<rect id="SVGID_19_" x="309" y="323.8" width="43.9" height="631.6"/>
	</defs>
	<clipPath id="SVGID_20_">
		<use xlink:href="#SVGID_19_"  style="overflow:visible;"/>
	</clipPath>
	<g class="st13">
		<text transform="matrix(-1.224647e-16 -0.8845 1 -1.083235e-16 345.5972 763.5713)"><tspan x="0" y="0" class="st3 st11">Ari</tspan><tspan x="44.7" y="0" class="st3 st11 st14">z</tspan><tspan x="65" y="0" class="st3 st11">ona</tspan></text>
	</g>
</g>
<g>
	<defs>
		<rect id="SVGID_21_" x="360.3" y="242.9" width="43.9" height="712.5"/>
	</defs>
	<clipPath id="SVGID_22_">
		<use xlink:href="#SVGID_21_"  style="overflow:visible;"/>
	</clipPath>
	<g class="st15">
		<text transform="matrix(-1.224647e-16 -0.8845 1 -1.083235e-16 396.8608 791.4268)"><tspan x="0" y="0" class="st3 st11 st12">C</tspan><tspan x="24.4" y="0" class="st3 st11">ali</tspan><tspan x="61" y="0" class="st3 st11 st14">f</tspan><tspan x="73.2" y="0" class="st3 st11">ornia</tspan></text>
	</g>
</g>
<g>
	<defs>
		<rect id="SVGID_23_" x="411.6" y="179" width="43.9" height="776.4"/>
	</defs>
	<clipPath id="SVGID_24_">
		<use xlink:href="#SVGID_23_"  style="overflow:visible;"/>
	</clipPath>
	<g class="st16">
		<text transform="matrix(-1.224647e-16 -0.8845 1 -1.083235e-16 448.1216 826.4883)"><tspan x="0" y="0" class="st3 st11 st12">C</tspan><tspan x="24.4" y="0" class="st3 st11">onne</tspan><tspan x="105.8" y="0" class="st3 st11 st14">ct</tspan><tspan x="138.2" y="0" class="st3 st11">i</tspan><tspan x="146.4" y="0" class="st3 st11 st14">c</tspan><tspan x="166.7" y="0" class="st3 st11">ut</tspan></text>
	</g>
</g>
<g>
	<defs>
		<rect id="SVGID_25_" x="462.8" y="179" width="43.9" height="776.4"/>
	</defs>
	<clipPath id="SVGID_26_">
		<use xlink:href="#SVGID_25_"  style="overflow:visible;"/>
	</clipPath>
	<g class="st17">
		<text transform="matrix(-1.224647e-16 -0.8845 1 -1.083235e-16 499.3853 935.208)"><tspan x="0" y="0" class="st3 st11 st12">D</tspan><tspan x="24.4" y="0" class="st3 st11">i</tspan><tspan x="32.5" y="0" class="st3 st11 st14">st</tspan><tspan x="65" y="0" class="st3 st11">ri</tspan><tspan x="85.3" y="0" class="st3 st11 st14">ct</tspan><tspan x="117.8" y="0" class="st3 st11 st12"> </tspan><tspan x="125.9" y="0" class="st3 st11">o</tspan><tspan x="146.2" y="0" class="st3 st11 st14">f</tspan><tspan x="158.4" y="0" class="st3 st11 st12"> </tspan><tspan x="166.5" y="0" class="st3 st11 st12">C</tspan><tspan x="190.9" y="0" class="st3 st11">olu</tspan><tspan x="239.7" y="0" class="st3 st11 st12">m</tspan><tspan x="268.2" y="0" class="st3 st11">bia</tspan></text>
	</g>
</g>
<g>
	<defs>
		<rect id="SVGID_27_" x="514.1" y="307.6" width="43.9" height="647.8"/>
	</defs>
	<clipPath id="SVGID_28_">
		<use xlink:href="#SVGID_27_"  style="overflow:visible;"/>
	</clipPath>
	<g class="st18">
		<text transform="matrix(-1.224647e-16 -0.8845 1 -1.083235e-16 550.6479 769.8613)" class="st3 st11">Georgia</text>
	</g>
</g>
<g>
	<defs>
		<rect id="SVGID_29_" x="565.3" y="410" width="43.9" height="545.4"/>
	</defs>
	<clipPath id="SVGID_30_">
		<use xlink:href="#SVGID_29_"  style="overflow:visible;"/>
	</clipPath>
	<g class="st19">
		<text transform="matrix(-1.224647e-16 -0.8845 1 -1.083235e-16 601.9116 734.8145)"><tspan x="0" y="0" class="st3 st11 st14">I</tspan><tspan x="12.2" y="0" class="st3 st11">daho</tspan></text>
	</g>
</g>
<g>
	<defs>
		<rect id="SVGID_31_" x="616.6" y="334.5" width="43.9" height="620.9"/>
	</defs>
	<clipPath id="SVGID_32_">
		<use xlink:href="#SVGID_31_"  style="overflow:visible;"/>
	</clipPath>
	<g class="st20">
		<text transform="matrix(-1.224647e-16 -0.8845 1 -1.083235e-16 653.1724 761.7881)"><tspan x="0" y="0" class="st3 st11 st14">I</tspan><tspan x="12.2" y="0" class="st3 st11">ndiana</tspan></text>
	</g>
</g>
<g>
	<defs>
		<rect id="SVGID_33_" x="667.9" y="329.1" width="43.9" height="626.3"/>
	</defs>
	<clipPath id="SVGID_34_">
		<use xlink:href="#SVGID_33_"  style="overflow:visible;"/>
	</clipPath>
	<g class="st21">
		<text transform="matrix(-1.224647e-16 -0.8845 1 -1.083235e-16 704.4351 762.6729)"><tspan x="0" y="0" class="st3 st11">Kan</tspan><tspan x="65.1" y="0" class="st3 st11 st14">s</tspan><tspan x="85.4" y="0" class="st3 st11">as</tspan></text>
	</g>
</g>
<g>
	<defs>
		<rect id="SVGID_35_" x="719.1" y="237.4" width="43.9" height="718"/>
	</defs>
	<clipPath id="SVGID_36_">
		<use xlink:href="#SVGID_35_"  style="overflow:visible;"/>
	</clipPath>
	<g class="st22">
		<text transform="matrix(-1.224647e-16 -0.8845 1 -1.083235e-16 755.6987 792.3408)"><tspan x="0" y="0" class="st3 st11">Loui</tspan><tspan x="69.1" y="0" class="st3 st11 st14">s</tspan><tspan x="89.4" y="0" class="st3 st11">iana</tspan></text>
	</g>
</g>
<g>
	<defs>
		<rect id="SVGID_37_" x="770.4" y="253.7" width="43.9" height="701.7"/>
	</defs>
	<clipPath id="SVGID_38_">
		<use xlink:href="#SVGID_37_"  style="overflow:visible;"/>
	</clipPath>
	<g class="st23">
		<text transform="matrix(-1.224647e-16 -0.8845 1 -1.083235e-16 806.9624 786.0166)"><tspan x="0" y="0" class="st3 st11 st12">M</tspan><tspan x="28.5" y="0" class="st3 st11">ar</tspan><tspan x="61" y="0" class="st3 st11 st14">y</tspan><tspan x="81.3" y="0" class="st3 st11">land</tspan></text>
	</g>
</g>
<g>
	<defs>
		<rect id="SVGID_39_" x="821.7" y="264.5" width="43.9" height="690.9"/>
	</defs>
	<clipPath id="SVGID_40_">
		<use xlink:href="#SVGID_39_"  style="overflow:visible;"/>
	</clipPath>
	<g class="st24">
		<text transform="matrix(-1.224647e-16 -0.8845 1 -1.083235e-16 858.2251 784.2383)"><tspan x="0" y="0" class="st3 st11 st12">M</tspan><tspan x="28.5" y="0" class="st3 st11">i</tspan><tspan x="36.6" y="0" class="st3 st11 st14">c</tspan><tspan x="56.9" y="0" class="st3 st11">higan</tspan></text>
	</g>
</g>
<g>
	<defs>
		<rect id="SVGID_41_" x="872.9" y="183.7" width="43.9" height="771.7"/>
	</defs>
	<clipPath id="SVGID_42_">
		<use xlink:href="#SVGID_41_"  style="overflow:visible;"/>
	</clipPath>
	<g class="st25">
		<text transform="matrix(-1.224647e-16 -0.8845 1 -1.083235e-16 909.4858 812.0742)"><tspan x="0" y="0" class="st3 st11 st12">M</tspan><tspan x="28.5" y="0" class="st3 st11">i</tspan><tspan x="36.6" y="0" class="st3 st11 st14">ss</tspan><tspan x="77.2" y="0" class="st3 st11">i</tspan><tspan x="85.3" y="0" class="st3 st11 st14">ss</tspan><tspan x="125.9" y="0" class="st3 st11">ippi</tspan></text>
	</g>
</g>
<g>
	<defs>
		<rect id="SVGID_43_" x="924.2" y="275.2" width="43.9" height="680.2"/>
	</defs>
	<clipPath id="SVGID_44_">
		<use xlink:href="#SVGID_43_"  style="overflow:visible;"/>
	</clipPath>
	<g class="st26">
		<text transform="matrix(-1.224647e-16 -0.8845 1 -1.083235e-16 960.7495 778.8477)"><tspan x="0" y="0" class="st3 st11 st12">M</tspan><tspan x="28.5" y="0" class="st3 st11">on</tspan><tspan x="69.1" y="0" class="st3 st11 st14">t</tspan><tspan x="81.3" y="0" class="st3 st11">ana</tspan></text>
	</g>
</g>
<g>
	<defs>
		<rect id="SVGID_45_" x="975.4" y="318.3" width="43.9" height="637.1"/>
	</defs>
	<clipPath id="SVGID_46_">
		<use xlink:href="#SVGID_45_"  style="overflow:visible;"/>
	</clipPath>
	<g class="st27">
		<text transform="matrix(-1.224647e-16 -0.8845 1 -1.083235e-16 1012.0117 764.4707)"><tspan x="0" y="0" class="st3 st11 st12">N</tspan><tspan x="24.4" y="0" class="st3 st11">e</tspan><tspan x="44.7" y="0" class="st3 st11 st14">v</tspan><tspan x="65" y="0" class="st3 st11">ada</tspan></text>
	</g>
</g>
<g>
	<defs>
		<rect id="SVGID_47_" x="1026.7" y="179" width="43.9" height="776.4"/>
	</defs>
	<clipPath id="SVGID_48_">
		<use xlink:href="#SVGID_47_"  style="overflow:visible;"/>
	</clipPath>
	<g class="st28">
		<text transform="matrix(-1.224647e-16 -0.8845 1 -1.083235e-16 1063.2754 825.5547)"><tspan x="0" y="0" class="st3 st11 st12">N</tspan><tspan x="24.4" y="0" class="st3 st11">e</tspan><tspan x="44.7" y="0" class="st3 st11 st12">w</tspan><tspan x="69.1" y="0" class="st3 st11 st29"> </tspan><tspan x="85.4" y="0" class="st3 st11 st14">J</tspan><tspan x="105.7" y="0" class="st3 st11">er</tspan><tspan x="138.2" y="0" class="st3 st11 st14">s</tspan><tspan x="158.5" y="0" class="st3 st11">ey</tspan></text>
	</g>
</g>
<g>
	<defs>
		<rect id="SVGID_49_" x="1078" y="232.2" width="43.9" height="723.2"/>
	</defs>
	<clipPath id="SVGID_50_">
		<use xlink:href="#SVGID_49_"  style="overflow:visible;"/>
	</clipPath>
	<g class="st30">
		<text transform="matrix(-1.224647e-16 -0.8845 1 -1.083235e-16 1114.5371 796.7979)"><tspan x="0" y="0" class="st3 st11 st12">N</tspan><tspan x="24.4" y="0" class="st3 st11">e</tspan><tspan x="44.7" y="0" class="st3 st11 st12">w</tspan><tspan x="69.1" y="0" class="st3 st11 st29"> </tspan><tspan x="85.4" y="0" class="st3 st11">York</tspan></text>
	</g>
</g>
<g>
	<defs>
		<rect id="SVGID_51_" x="1129.2" y="179" width="43.9" height="776.4"/>
	</defs>
	<clipPath id="SVGID_52_">
		<use xlink:href="#SVGID_51_"  style="overflow:visible;"/>
	</clipPath>
	<g class="st31">
		<text transform="matrix(-1.224647e-16 -0.8845 1 -1.083235e-16 1165.8008 847.1426)"><tspan x="0" y="0" class="st3 st11 st12">N</tspan><tspan x="24.4" y="0" class="st3 st11">or</tspan><tspan x="56.9" y="0" class="st3 st11 st14">t</tspan><tspan x="69.1" y="0" class="st3 st11">h</tspan><tspan x="89.4" y="0" class="st3 st11 st14"> </tspan><tspan x="101.6" y="0" class="st3 st11 st12">D</tspan><tspan x="126" y="0" class="st3 st11">a</tspan><tspan x="146.3" y="0" class="st3 st11 st14">k</tspan><tspan x="166.6" y="0" class="st3 st11">o</tspan><tspan x="187" y="0" class="st3 st11 st14">t</tspan><tspan x="199.2" y="0" class="st3 st11">a</tspan></text>
	</g>
</g>
<g>
	<defs>
		<rect id="SVGID_53_" x="1180.5" y="210.6" width="43.9" height="744.8"/>
	</defs>
	<clipPath id="SVGID_54_">
		<use xlink:href="#SVGID_53_"  style="overflow:visible;"/>
	</clipPath>
	<g class="st32">
		<text transform="matrix(-1.224647e-16 -0.8845 1 -1.083235e-16 1217.0625 800.4131)"><tspan x="0" y="0" class="st3 st11">O</tspan><tspan x="28.4" y="0" class="st3 st11 st14">k</tspan><tspan x="48.7" y="0" class="st3 st11">laho</tspan><tspan x="117.9" y="0" class="st3 st11 st12">m</tspan><tspan x="146.3" y="0" class="st3 st11">a</tspan></text>
	</g>
</g>
<g>
	<defs>
		<rect id="SVGID_55_" x="1231.8" y="179" width="43.9" height="776.4"/>
	</defs>
	<clipPath id="SVGID_56_">
		<use xlink:href="#SVGID_55_"  style="overflow:visible;"/>
	</clipPath>
	<g class="st33">
		<text transform="matrix(-1.224647e-16 -0.8845 1 -1.083235e-16 1268.3242 848.0762)"><tspan x="0" y="0" class="st3 st11">Penn</tspan><tspan x="85.4" y="0" class="st3 st11 st14">sy</tspan><tspan x="126" y="0" class="st3 st11">l</tspan><tspan x="134.1" y="0" class="st3 st11 st14">v</tspan><tspan x="154.4" y="0" class="st3 st11">ania</tspan></text>
	</g>
</g>
<g>
	<defs>
		<rect id="SVGID_57_" x="1283" y="179" width="43.9" height="776.4"/>
	</defs>
	<clipPath id="SVGID_58_">
		<use xlink:href="#SVGID_57_"  style="overflow:visible;"/>
	</clipPath>
	<g class="st34">
		<text transform="matrix(-1.224647e-16 -0.8845 1 -1.083235e-16 1319.5879 866.0488)"><tspan x="0" y="0" class="st3 st11">Sou</tspan><tspan x="65.1" y="0" class="st3 st11 st14">t</tspan><tspan x="77.2" y="0" class="st3 st11">h</tspan><tspan x="97.6" y="0" class="st3 st11 st12"> </tspan><tspan x="105.7" y="0" class="st3 st11 st12">C</tspan><tspan x="130.1" y="0" class="st3 st11">arolina</tspan></text>
	</g>
</g>
<g>
	<defs>
		<rect id="SVGID_59_" x="1334.3" y="179" width="43.9" height="776.4"/>
	</defs>
	<clipPath id="SVGID_60_">
		<use xlink:href="#SVGID_59_"  style="overflow:visible;"/>
	</clipPath>
	<g class="st35">
		<text transform="matrix(-1.224647e-16 -0.8845 1 -1.083235e-16 1370.8496 813.9082)"><tspan x="0" y="0" class="st3 st11 st12">T</tspan><tspan x="20.3" y="0" class="st3 st11">enne</tspan><tspan x="101.7" y="0" class="st3 st11 st14">ss</tspan><tspan x="142.3" y="0" class="st3 st11">ee</tspan></text>
	</g>
</g>
<g>
	<defs>
		<rect id="SVGID_61_" x="1385.5" y="447.9" width="43.9" height="478.3"/>
	</defs>
	<clipPath id="SVGID_62_">
		<use xlink:href="#SVGID_61_"  style="overflow:visible;"/>
	</clipPath>
	<g class="st36">
		<text transform="matrix(-1.224647e-16 -0.8845 1 -1.083235e-16 1422.1133 721.3145)"><tspan x="0" y="0" class="st3 st11 st12">U</tspan><tspan x="24.4" y="0" class="st3 st11 st14">t</tspan><tspan x="36.6" y="0" class="st3 st11">ah</tspan></text>
	</g>
</g>
<g>
	<defs>
		<rect id="SVGID_63_" x="1436.8" y="329.2" width="43.9" height="626.2"/>
	</defs>
	<clipPath id="SVGID_64_">
		<use xlink:href="#SVGID_63_"  style="overflow:visible;"/>
	</clipPath>
	<g class="st37">
		<text transform="matrix(-1.224647e-16 -0.8845 1 -1.083235e-16 1473.377 762.6729)" class="st3 st11">Virginia</text>
	</g>
</g>
<g>
	<defs>
		<rect id="SVGID_65_" x="1488.1" y="179" width="43.9" height="776.4"/>
	</defs>
	<clipPath id="SVGID_66_">
		<use xlink:href="#SVGID_65_"  style="overflow:visible;"/>
	</clipPath>
	<g class="st38">
		<text transform="matrix(-1.224647e-16 -0.8845 1 -1.083235e-16 1524.6387 843.5469)"><tspan x="0" y="0" class="st3 st11 st12">W</tspan><tspan x="32.5" y="0" class="st3 st11">e</tspan><tspan x="52.9" y="0" class="st3 st11 st14">st</tspan><tspan x="85.4" y="0" class="st3 st11 st12"> </tspan><tspan x="93.5" y="0" class="st3 st11">Virginia</tspan></text>
	</g>
</g>
<g>
	<defs>
		<rect id="SVGID_67_" x="1539.3" y="248.4" width="43.9" height="707"/>
	</defs>
	<clipPath id="SVGID_68_">
		<use xlink:href="#SVGID_67_"  style="overflow:visible;"/>
	</clipPath>
	<g class="st39">
		<text transform="matrix(-1.224647e-16 -0.8845 1 -1.083235e-16 1575.9004 786.9131)"><tspan x="0" y="0" class="st3 st11 st12">W</tspan><tspan x="32.5" y="0" class="st3 st11 st14">y</tspan><tspan x="52.8" y="0" class="st3 st11">o</tspan><tspan x="73.2" y="0" class="st3 st11 st12">m</tspan><tspan x="101.6" y="0" class="st3 st11">ing</tspan></text>
	</g>
</g>
<g>
	<defs>
		<rect id="SVGID_69_" x="160" y="179" width="1462.9" height="776.4"/>
	</defs>
	<clipPath id="SVGID_70_">
		<use xlink:href="#SVGID_69_"  style="overflow:visible;"/>
	</clipPath>
	<g class="st40">
		<text transform="matrix(1.1305 0 0 1 444.3853 266.4917)"><tspan x="0" y="0" class="st41 st3 st42">O</tspan><tspan x="39.5" y="0" class="st41 st3 st42">be</tspan><tspan x="97" y="0" class="st41 st3 st42">s</tspan><tspan x="122.1" y="0" class="st41 st3 st42">e</tspan><tspan x="150.9" y="0" class="st41 st3 st42 st43"> </tspan><tspan x="161.7" y="0" class="st41 st3 st42 st44">(</tspan><tspan x="179.7" y="0" class="st41 st3 st42">95</tspan><tspan x="237.1" y="0" class="st41 st3 st42">t</tspan><tspan x="251.5" y="0" class="st41 st3 st42">h</tspan><tspan x="280.2" y="0" class="st41 st3 st42 st43"> </tspan><tspan x="291" y="0" class="st41 st3 st42">pe</tspan><tspan x="348.5" y="0" class="st41 st3 st42 st44">r</tspan><tspan x="366.5" y="0" class="st41 st3 st42">c</tspan><tspan x="391.6" y="0" class="st41 st3 st42">en</tspan><tspan x="449.1" y="0" class="st41 st3 st42">t</tspan><tspan x="463.5" y="0" class="st41 st3 st42">il</tspan><tspan x="485.1" y="0" class="st41 st3 st42">e</tspan><tspan x="513.9" y="0" class="st41 st3 st42 st43"> </tspan><tspan x="524.7" y="0" class="st41 st3 st42">o</tspan><tspan x="553.4" y="0" class="st41 st3 st42 st44">r</tspan><tspan x="571.4" y="0" class="st41 st3 st42 st43"> </tspan><tspan x="582.2" y="0" class="st41 st3 st42">abo</tspan><tspan x="668.4" y="0" class="st41 st3 st42">v</tspan><tspan x="693.6" y="0" class="st41 st3 st42">e</tspan><tspan x="722.3" y="0" class="st41 st3 st42 st44">)</tspan><tspan x="740.3" y="0" class="st41 st3 st42 st43"> </tspan><tspan x="751.1" y="0" class="st41 st3 st42">%</tspan></text>
	</g>
</g>
</svg>
