<?xml version="1.0" encoding="utf-8"?>
<!-- Generator: Adobe Illustrator 20.1.0, SVG Export Plug-In . SVG Version: 6.00 Build 0)  -->
<svg version="1.1" id="Layer_1" xmlns="http://www.w3.org/2000/svg" xmlns:xlink="http://www.w3.org/1999/xlink" x="0px" y="0px"
	 viewBox="0 0 1920 1080" style="enable-background:new 0 0 1920 1080;" xml:space="preserve">
<style type="text/css">
	.st0{clip-path:url(#SVGID_6_);fill:none;stroke:#D9D9D8;stroke-linejoin:round;stroke-miterlimit:10;}
	.st1{clip-path:url(#SVGID_8_);fill:#4F8541;}
	.st2{clip-path:url(#SVGID_12_);}
	.st3{fill:#595A5A;}
	.st4{font-family:'Helvetica';}
	.st5{font-size:14.4841px;}
	.st6{clip-path:url(#SVGID_14_);}
	.st7{clip-path:url(#SVGID_16_);}
	.st8{clip-path:url(#SVGID_18_);}
	.st9{clip-path:url(#SVGID_20_);}
	.st10{clip-path:url(#SVGID_22_);}
	.st11{clip-path:url(#SVGID_24_);}
	.st12{clip-path:url(#SVGID_26_);}
	.st13{clip-path:url(#SVGID_28_);}
	.st14{clip-path:url(#SVGID_30_);}
	.st15{clip-path:url(#SVGID_32_);}
	.st16{clip-path:url(#SVGID_34_);}
	.st17{clip-path:url(#SVGID_36_);}
	.st18{clip-path:url(#SVGID_38_);}
	.st19{clip-path:url(#SVGID_40_);}
	.st20{letter-spacing:1;}
	.st21{clip-path:url(#SVGID_42_);}
	.st22{clip-path:url(#SVGID_44_);}
	.st23{clip-path:url(#SVGID_46_);}
	.st24{clip-path:url(#SVGID_48_);}
	.st25{clip-path:url(#SVGID_50_);}
	.st26{clip-path:url(#SVGID_52_);}
	.st27{clip-path:url(#SVGID_54_);}
	.st28{clip-path:url(#SVGID_56_);}
	.st29{clip-path:url(#SVGID_58_);}
	.st30{clip-path:url(#SVGID_60_);}
	.st31{clip-path:url(#SVGID_62_);}
	.st32{clip-path:url(#SVGID_64_);}
	.st33{clip-path:url(#SVGID_66_);}
	.st34{clip-path:url(#SVGID_68_);}
	.st35{clip-path:url(#SVGID_70_);}
	.st36{clip-path:url(#SVGID_72_);}
	.st37{clip-path:url(#SVGID_74_);}
	.st38{clip-path:url(#SVGID_76_);}
	.st39{clip-path:url(#SVGID_78_);}
	.st40{clip-path:url(#SVGID_80_);}
	.st41{clip-path:url(#SVGID_82_);}
	.st42{clip-path:url(#SVGID_84_);}
	.st43{clip-path:url(#SVGID_86_);}
	.st44{clip-path:url(#SVGID_88_);}
	.st45{clip-path:url(#SVGID_90_);}
	.st46{font-size:31.2224px;}
	.st47{fill:none;stroke:#D9D9D8;stroke-linejoin:round;stroke-miterlimit:10;}
</style>
<g>
	<g>
		<defs>
			<rect id="SVGID_1_" x="318" y="85" width="1307.9" height="928"/>
		</defs>
		<clipPath id="SVGID_2_">
			<use xlink:href="#SVGID_1_"  style="overflow:visible;"/>
		</clipPath>
	</g>
	<g>
		<defs>
			<rect id="SVGID_3_" x="318" y="85" width="1307.9" height="928"/>
		</defs>
		<clipPath id="SVGID_4_">
			<use xlink:href="#SVGID_3_"  style="overflow:visible;"/>
		</clipPath>
	</g>
	<g>
		<defs>
			<rect id="SVGID_5_" x="318" y="85" width="1307.9" height="928"/>
		</defs>
		<clipPath id="SVGID_6_">
			<use xlink:href="#SVGID_5_"  style="overflow:visible;"/>
		</clipPath>
		<path class="st0" d="M1585.2,972.2 M1585.2,163.9 M1472.4,972.2 M1472.4,163.9 M1359.7,972.2 M1359.7,163.9 M1246.9,972.2
			 M1246.9,163.9 M1134.2,972.2 M1134.2,163.9 M1021.4,972.2 M1021.4,163.9 M908.7,972.2 M908.7,163.9 M795.9,972.2 M795.9,163.9
			 M683.2,972.2 M683.2,163.9 M570.4,972.2 M570.4,163.9"/>
	</g>
</g>
<g>
	<g>
		<defs>
			<rect id="SVGID_7_" x="446.8" y="157.4" width="1047.7" height="751.6"/>
		</defs>
		<clipPath id="SVGID_8_">
			<use xlink:href="#SVGID_7_"  style="overflow:visible;"/>
		</clipPath>
		<path class="st1" d="M1441.4,176.7H446.8V167h994.6L1441.4,176.7L1441.4,176.7z M1389.9,202.5H446.8v-8h943.1L1389.9,202.5
			L1389.9,202.5z M1389.9,229.8H446.8v-8h943.1L1389.9,229.8L1389.9,229.8z M1389.9,255.6H446.8v-8h943.1L1389.9,255.6L1389.9,255.6
			z M1389.9,282.9H446.8v-8h943.1L1389.9,282.9L1389.9,282.9z M1389.9,310.3H446.8v-9.7h943.1L1389.9,310.3L1389.9,310.3z
			 M1389.9,336.1H446.8v-8h943.1L1389.9,336.1L1389.9,336.1z M1389.9,363.4H446.8v-8h943.1L1389.9,363.4L1389.9,363.4z
			 M1389.9,390.8H446.8v-9.7h943.1L1389.9,390.8L1389.9,390.8z M1389.9,416.5H446.8v-8h943.1L1389.9,416.5L1389.9,416.5z
			 M1389.9,443.9H446.8v-8h943.1L1389.9,443.9L1389.9,443.9z M1389.9,471.2H446.8v-9.7h943.1L1389.9,471.2L1389.9,471.2z
			 M1389.9,497H446.8v-8h943.1L1389.9,497L1389.9,497z M1389.9,524.4H446.8v-8h943.1L1389.9,524.4L1389.9,524.4z M1336.8,550.1h-890
			v-8h890V550.1z M1336.8,577.5h-890v-8h890V577.5z M1336.8,604.8h-890v-9.7h890V604.8z M1336.8,630.6h-890v-8h890V630.6z
			 M1336.8,657.9h-890v-8h890V657.9z M1285.3,685.3H446.8v-9.7h838.5V685.3z M1285.3,711H446.8v-8h838.5V711z M1232.2,738.4H446.8
			v-8h785.4V738.4z M1232.2,764.1H446.8v-8h785.4V764.1z M1127.5,791.5H446.8v-8h680.8L1127.5,791.5L1127.5,791.5z M1127.5,818.9
			H446.8v-8h680.8L1127.5,818.9L1127.5,818.9z M1127.5,844.6H446.8v-8h680.8L1127.5,844.6L1127.5,844.6z M1076,872H446.8v-8H1076
			V872z M813.7,899.3H446.8v-9.7h366.9L813.7,899.3L813.7,899.3z"/>
	</g>
</g>
<g>
	<g>
		<defs>
			<rect id="SVGID_9_" x="318" y="85" width="1213.4" height="861"/>
		</defs>
		<clipPath id="SVGID_10_">
			<use xlink:href="#SVGID_9_"  style="overflow:visible;"/>
		</clipPath>
	</g>
	<g>
		<defs>
			<rect id="SVGID_11_" x="318" y="85" width="1213.4" height="861"/>
		</defs>
		<clipPath id="SVGID_12_">
			<use xlink:href="#SVGID_11_"  style="overflow:visible;"/>
		</clipPath>
		<g class="st2">
			<text transform="matrix(1 0 0 1 431.2437 931.8301)" class="st3 st4 st5">1996</text>
		</g>
	</g>
	<g>
		<defs>
			<rect id="SVGID_13_" x="318" y="85" width="1213.4" height="861"/>
		</defs>
		<clipPath id="SVGID_14_">
			<use xlink:href="#SVGID_13_"  style="overflow:visible;"/>
		</clipPath>
		<g class="st6">
			<text transform="matrix(1 0 0 1 535.9556 931.8301)" class="st3 st4 st5">1998</text>
		</g>
	</g>
	<g>
		<defs>
			<rect id="SVGID_15_" x="318" y="85" width="1213.4" height="861"/>
		</defs>
		<clipPath id="SVGID_16_">
			<use xlink:href="#SVGID_15_"  style="overflow:visible;"/>
		</clipPath>
		<g class="st7">
			<text transform="matrix(1 0 0 1 640.6685 931.8301)" class="st3 st4 st5">2000</text>
		</g>
	</g>
	<g>
		<defs>
			<rect id="SVGID_17_" x="318" y="85" width="1213.4" height="861"/>
		</defs>
		<clipPath id="SVGID_18_">
			<use xlink:href="#SVGID_17_"  style="overflow:visible;"/>
		</clipPath>
		<g class="st8">
			<text transform="matrix(1 0 0 1 745.3794 931.8301)" class="st3 st4 st5">2002</text>
		</g>
	</g>
	<g>
		<defs>
			<rect id="SVGID_19_" x="318" y="85" width="1213.4" height="861"/>
		</defs>
		<clipPath id="SVGID_20_">
			<use xlink:href="#SVGID_19_"  style="overflow:visible;"/>
		</clipPath>
		<g class="st9">
			<text transform="matrix(1 0 0 1 850.0923 931.8301)" class="st3 st4 st5">2004</text>
		</g>
	</g>
	<g>
		<defs>
			<rect id="SVGID_21_" x="318" y="85" width="1213.4" height="861"/>
		</defs>
		<clipPath id="SVGID_22_">
			<use xlink:href="#SVGID_21_"  style="overflow:visible;"/>
		</clipPath>
		<g class="st10">
			<text transform="matrix(1 0 0 1 954.8042 931.8301)" class="st3 st4 st5">2006</text>
		</g>
	</g>
	<g>
		<defs>
			<rect id="SVGID_23_" x="318" y="85" width="1213.4" height="861"/>
		</defs>
		<clipPath id="SVGID_24_">
			<use xlink:href="#SVGID_23_"  style="overflow:visible;"/>
		</clipPath>
		<g class="st11">
			<text transform="matrix(1 0 0 1 1059.5156 931.8301)" class="st3 st4 st5">2008</text>
		</g>
	</g>
	<g>
		<defs>
			<rect id="SVGID_25_" x="318" y="85" width="1213.4" height="861"/>
		</defs>
		<clipPath id="SVGID_26_">
			<use xlink:href="#SVGID_25_"  style="overflow:visible;"/>
		</clipPath>
		<g class="st12">
			<text transform="matrix(1 0 0 1 1164.2285 931.8301)" class="st3 st4 st5">2010</text>
		</g>
	</g>
	<g>
		<defs>
			<rect id="SVGID_27_" x="318" y="85" width="1213.4" height="861"/>
		</defs>
		<clipPath id="SVGID_28_">
			<use xlink:href="#SVGID_27_"  style="overflow:visible;"/>
		</clipPath>
		<g class="st13">
			<text transform="matrix(1 0 0 1 1268.9404 931.8301)" class="st3 st4 st5">2012</text>
		</g>
	</g>
	<g>
		<defs>
			<rect id="SVGID_29_" x="318" y="85" width="1213.4" height="861"/>
		</defs>
		<clipPath id="SVGID_30_">
			<use xlink:href="#SVGID_29_"  style="overflow:visible;"/>
		</clipPath>
		<g class="st14">
			<text transform="matrix(1 0 0 1 1373.6523 931.8301)" class="st3 st4 st5">2014</text>
		</g>
	</g>
	<g>
		<defs>
			<rect id="SVGID_31_" x="318" y="85" width="1213.4" height="861"/>
		</defs>
		<clipPath id="SVGID_32_">
			<use xlink:href="#SVGID_31_"  style="overflow:visible;"/>
		</clipPath>
		<g class="st15">
			<text transform="matrix(1 0 0 1 1478.3652 931.8301)" class="st3 st4 st5">2016</text>
		</g>
	</g>
</g>
<g>
	<g>
		<defs>
			<rect id="SVGID_33_" x="318" y="881.2" width="429.9" height="26.8"/>
		</defs>
		<clipPath id="SVGID_34_">
			<use xlink:href="#SVGID_33_"  style="overflow:visible;"/>
		</clipPath>
		<g class="st16">
			<text transform="matrix(1 0 0 1 326.9272 900.3789)" class="st3 st4 st5">M</text>
			<text transform="matrix(1 0 0 1 338.2272 900.3789)" class="st3 st4 st5">a</text>
			<text transform="matrix(1 0 0 1 346.2272 900.3789)" class="st3 st4 st5">ss</text>
			<text transform="matrix(1 0 0 1 362.3272 900.3789)" class="st3 st4 st5">a</text>
			<text transform="matrix(1 0 0 1 370.4272 900.3789)" class="st3 st4 st5">c</text>
			<text transform="matrix(1 0 0 1 378.4272 900.3789)" class="st3 st4 st5">hu</text>
			<text transform="matrix(1 0 0 1 394.5272 900.3789)" class="st3 st4 st5">s</text>
			<text transform="matrix(1 0 0 1 402.5272 900.3789)" class="st3 st4 st5">e</text>
			<text transform="matrix(1 0 0 1 410.6272 900.3789)" class="st3 st4 st5">tt</text>
			<text transform="matrix(1 0 0 1 420.2272 900.3789)" class="st3 st4 st5">es</text>
		</g>
	</g>
</g>
<g>
	<g>
		<defs>
			<rect id="SVGID_35_" x="318" y="854.4" width="345.4" height="26.8"/>
		</defs>
		<clipPath id="SVGID_36_">
			<use xlink:href="#SVGID_35_"  style="overflow:visible;"/>
		</clipPath>
		<g class="st17">
			<text transform="matrix(1 0 0 1 355.4927 873.6094)" class="st3 st4 st5">C</text>
			<text transform="matrix(1 0 0 1 365.1927 873.6094)" class="st3 st4 st5">onne</text>
			<text transform="matrix(1 0 0 1 397.3927 873.6094)" class="st3 st4 st5">ct</text>
			<text transform="matrix(1 0 0 1 410.1927 873.6094)" class="st3 st4 st5">i</text>
			<text transform="matrix(1 0 0 1 413.4927 873.6094)" class="st3 st4 st5">c</text>
			<text transform="matrix(1 0 0 1 421.4927 873.6094)" class="st3 st4 st5">ut</text>
		</g>
	</g>
</g>
<g>
	<g>
		<defs>
			<rect id="SVGID_37_" x="318" y="827.7" width="207.7" height="26.8"/>
		</defs>
		<clipPath id="SVGID_38_">
			<use xlink:href="#SVGID_37_"  style="overflow:visible;"/>
		</clipPath>
		<g class="st18">
			<text transform="matrix(1 0 0 1 402.5737 846.8389)" class="st3 st4 st5">I</text>
			<text transform="matrix(1 0 0 1 407.3737 846.8389)" class="st3 st4 st5">o</text>
			<text transform="matrix(1 0 0 1 415.4737 846.8389)" class="st3 st4 st5">w</text>
			<text transform="matrix(1 0 0 1 425.0737 846.8389)" class="st3 st4 st5">a</text>
		</g>
	</g>
</g>
<g>
	<g>
		<defs>
			<rect id="SVGID_39_" x="318" y="800.9" width="425" height="26.8"/>
		</defs>
		<clipPath id="SVGID_40_">
			<use xlink:href="#SVGID_39_"  style="overflow:visible;"/>
		</clipPath>
		<g class="st19">
			<text transform="matrix(1 0 0 1 330.9585 820.0684)" class="st3 st4 st5">N</text>
			<text transform="matrix(1 0 0 1 340.6585 820.0684)" class="st3 st4 st5">e</text>
			<text transform="matrix(1 0 0 1 348.6585 820.0684)" class="st3 st4 st5">w</text>
			<text transform="matrix(1 0 0 1 358.3585 820.0684)" class="st3 st4 st5 st20"> </text>
			<text transform="matrix(1 0 0 1 364.7585 820.0684)" class="st3 st4 st5">H</text>
			<text transform="matrix(1 0 0 1 374.4585 820.0684)" class="st3 st4 st5">a</text>
			<text transform="matrix(1 0 0 1 382.4585 820.0684)" class="st3 st4 st5">m</text>
			<text transform="matrix(1 0 0 1 393.7585 820.0684)" class="st3 st4 st5">p</text>
			<text transform="matrix(1 0 0 1 401.8585 820.0684)" class="st3 st4 st5">s</text>
			<text transform="matrix(1 0 0 1 409.8585 820.0684)" class="st3 st4 st5">hire</text>
		</g>
	</g>
</g>
<g>
	<g>
		<defs>
			<rect id="SVGID_41_" x="318" y="774.1" width="280.1" height="26.8"/>
		</defs>
		<clipPath id="SVGID_42_">
			<use xlink:href="#SVGID_41_"  style="overflow:visible;"/>
		</clipPath>
		<g class="st21">
			<text transform="matrix(1 0 0 1 379.2388 793.2988)" class="st3 st4 st5">Ver</text>
			<text transform="matrix(1 0 0 1 401.7388 793.2988)" class="st3 st4 st5">m</text>
			<text transform="matrix(1 0 0 1 413.0388 793.2988)" class="st3 st4 st5">ont</text>
		</g>
	</g>
</g>
<g>
	<g>
		<defs>
			<rect id="SVGID_43_" x="318" y="747.4" width="304.3" height="26.8"/>
		</defs>
		<clipPath id="SVGID_44_">
			<use xlink:href="#SVGID_43_"  style="overflow:visible;"/>
		</clipPath>
		<g class="st22">
			<text transform="matrix(1 0 0 1 370.3872 766.5283)" class="st3 st4 st5">N</text>
			<text transform="matrix(1 0 0 1 380.0872 766.5283)" class="st3 st4 st5">e</text>
			<text transform="matrix(1 0 0 1 388.0872 766.5283)" class="st3 st4 st5">w</text>
			<text transform="matrix(1 0 0 1 397.7872 766.5283)" class="st3 st4 st5 st20"> </text>
			<text transform="matrix(1 0 0 1 404.1872 766.5283)" class="st3 st4 st5">York</text>
		</g>
	</g>
</g>
<g>
	<g>
		<defs>
			<rect id="SVGID_45_" x="318" y="720.6" width="234.2" height="26.8"/>
		</defs>
		<clipPath id="SVGID_46_">
			<use xlink:href="#SVGID_45_"  style="overflow:visible;"/>
		</clipPath>
		<g class="st23">
			<text transform="matrix(1 0 0 1 394.9302 739.7578)" class="st3 st4 st5">M</text>
			<text transform="matrix(1 0 0 1 406.2302 739.7578)" class="st3 st4 st5">aine</text>
		</g>
	</g>
</g>
<g>
	<g>
		<defs>
			<rect id="SVGID_47_" x="318" y="693.8" width="294.6" height="26.8"/>
		</defs>
		<clipPath id="SVGID_48_">
			<use xlink:href="#SVGID_47_"  style="overflow:visible;"/>
		</clipPath>
		<g class="st24">
			<text transform="matrix(1 0 0 1 373.606 712.9883)" class="st3 st4 st5">M</text>
			<text transform="matrix(1 0 0 1 384.906 712.9883)" class="st3 st4 st5">ar</text>
			<text transform="matrix(1 0 0 1 397.706 712.9883)" class="st3 st4 st5">y</text>
			<text transform="matrix(1 0 0 1 405.806 712.9883)" class="st3 st4 st5">land</text>
		</g>
	</g>
</g>
<g>
	<g>
		<defs>
			<rect id="SVGID_49_" x="318" y="667" width="345.4" height="26.8"/>
		</defs>
		<clipPath id="SVGID_50_">
			<use xlink:href="#SVGID_49_"  style="overflow:visible;"/>
		</clipPath>
		<g class="st25">
			<text transform="matrix(1 0 0 1 357.1021 686.2178)" class="st3 st4 st5">W</text>
			<text transform="matrix(1 0 0 1 370.0021 686.2178)" class="st3 st4 st5">a</text>
			<text transform="matrix(1 0 0 1 378.0021 686.2178)" class="st3 st4 st5">s</text>
			<text transform="matrix(1 0 0 1 386.1021 686.2178)" class="st3 st4 st5">hing</text>
			<text transform="matrix(1 0 0 1 413.5021 686.2178)" class="st3 st4 st5">t</text>
			<text transform="matrix(1 0 0 1 418.3021 686.2178)" class="st3 st4 st5">on</text>
		</g>
	</g>
</g>
<g>
	<g>
		<defs>
			<rect id="SVGID_51_" x="318" y="640.3" width="299.5" height="26.8"/>
		</defs>
		<clipPath id="SVGID_52_">
			<use xlink:href="#SVGID_51_"  style="overflow:visible;"/>
		</clipPath>
		<g class="st26">
			<text transform="matrix(1 0 0 1 372.8013 659.4473)" class="st3 st4 st5">D</text>
			<text transform="matrix(1 0 0 1 382.5013 659.4473)" class="st3 st4 st5">ela</text>
			<text transform="matrix(1 0 0 1 401.8013 659.4473)" class="st3 st4 st5">w</text>
			<text transform="matrix(1 0 0 1 411.5013 659.4473)" class="st3 st4 st5">are</text>
		</g>
	</g>
</g>
<g>
	<g>
		<defs>
			<rect id="SVGID_53_" x="318" y="613.5" width="246.3" height="26.8"/>
		</defs>
		<clipPath id="SVGID_54_">
			<use xlink:href="#SVGID_53_"  style="overflow:visible;"/>
		</clipPath>
		<g class="st27">
			<text transform="matrix(1 0 0 1 391.3081 632.6777)" class="st3 st4 st5">H</text>
			<text transform="matrix(1 0 0 1 401.0081 632.6777)" class="st3 st4 st5">a</text>
			<text transform="matrix(1 0 0 1 409.0081 632.6777)" class="st3 st4 st5">w</text>
			<text transform="matrix(1 0 0 1 418.7081 632.6777)" class="st3 st4 st5">aii</text>
		</g>
	</g>
</g>
<g>
	<g>
		<defs>
			<rect id="SVGID_55_" x="318" y="586.7" width="236.7" height="26.8"/>
		</defs>
		<clipPath id="SVGID_56_">
			<use xlink:href="#SVGID_55_"  style="overflow:visible;"/>
		</clipPath>
		<g class="st28">
			<text transform="matrix(1 0 0 1 392.9175 605.9072)" class="st3 st4 st5">I</text>
			<text transform="matrix(1 0 0 1 397.7175 605.9072)" class="st3 st4 st5">llinois</text>
		</g>
	</g>
</g>
<g>
	<g>
		<defs>
			<rect id="SVGID_57_" x="318" y="560" width="316.4" height="26.8"/>
		</defs>
		<clipPath id="SVGID_58_">
			<use xlink:href="#SVGID_57_"  style="overflow:visible;"/>
		</clipPath>
		<g class="st29">
			<text transform="matrix(1 0 0 1 366.7583 579.1377)" class="st3 st4 st5">M</text>
			<text transform="matrix(1 0 0 1 378.0583 579.1377)" class="st3 st4 st5">inne</text>
			<text transform="matrix(1 0 0 1 405.4583 579.1377)" class="st3 st4 st5">s</text>
			<text transform="matrix(1 0 0 1 413.4583 579.1377)" class="st3 st4 st5">o</text>
			<text transform="matrix(1 0 0 1 421.4583 579.1377)" class="st3 st4 st5">t</text>
			<text transform="matrix(1 0 0 1 426.3583 579.1377)" class="st3 st4 st5">a</text>
		</g>
	</g>
</g>
<g>
	<g>
		<defs>
			<rect id="SVGID_59_" x="318" y="533.2" width="372" height="26.8"/>
		</defs>
		<clipPath id="SVGID_60_">
			<use xlink:href="#SVGID_59_"  style="overflow:visible;"/>
		</clipPath>
		<g class="st30">
			<text transform="matrix(1 0 0 1 347.8403 552.3672)" class="st3 st4 st5">R</text>
			<text transform="matrix(1 0 0 1 357.5403 552.3672)" class="st3 st4 st5">hode</text>
			<text transform="matrix(1 0 0 1 389.7403 552.3672)" class="st3 st4 st5"> Is</text>
			<text transform="matrix(1 0 0 1 407.4403 552.3672)" class="st3 st4 st5">land</text>
		</g>
	</g>
</g>
<g>
	<g>
		<defs>
			<rect id="SVGID_61_" x="318" y="506.4" width="260.8" height="26.8"/>
		</defs>
		<clipPath id="SVGID_62_">
			<use xlink:href="#SVGID_61_"  style="overflow:visible;"/>
		</clipPath>
		<g class="st31">
			<text transform="matrix(1 0 0 1 385.6763 525.5977)" class="st3 st4 st5">Oregon</text>
		</g>
	</g>
</g>
<g>
	<g>
		<defs>
			<rect id="SVGID_63_" x="318" y="479.7" width="374.4" height="26.8"/>
		</defs>
		<clipPath id="SVGID_64_">
			<use xlink:href="#SVGID_63_"  style="overflow:visible;"/>
		</clipPath>
		<g class="st32">
			<text transform="matrix(1 0 0 1 345.8286 498.8271)" class="st3 st4 st5">Penn</text>
			<text transform="matrix(1 0 0 1 379.6286 498.8271)" class="st3 st4 st5">sy</text>
			<text transform="matrix(1 0 0 1 395.7286 498.8271)" class="st3 st4 st5">l</text>
			<text transform="matrix(1 0 0 1 398.9286 498.8271)" class="st3 st4 st5">v</text>
			<text transform="matrix(1 0 0 1 407.0286 498.8271)" class="st3 st4 st5">ania</text>
		</g>
	</g>
</g>
<g>
	<g>
		<defs>
			<rect id="SVGID_65_" x="318" y="452.9" width="292.2" height="26.8"/>
		</defs>
		<clipPath id="SVGID_66_">
			<use xlink:href="#SVGID_65_"  style="overflow:visible;"/>
		</clipPath>
		<g class="st33">
			<text transform="matrix(1 0 0 1 375.6099 472.0576)" class="st3 st4 st5">C</text>
			<text transform="matrix(1 0 0 1 385.3099 472.0576)" class="st3 st4 st5">olorado</text>
		</g>
	</g>
</g>
<g>
	<g>
		<defs>
			<rect id="SVGID_67_" x="318" y="426.1" width="265.7" height="26.8"/>
		</defs>
		<clipPath id="SVGID_68_">
			<use xlink:href="#SVGID_67_"  style="overflow:visible;"/>
		</clipPath>
		<g class="st34">
			<text transform="matrix(1 0 0 1 383.2534 445.2871)" class="st3 st4 st5">N</text>
			<text transform="matrix(1 0 0 1 392.9534 445.2871)" class="st3 st4 st5">e</text>
			<text transform="matrix(1 0 0 1 400.9534 445.2871)" class="st3 st4 st5">v</text>
			<text transform="matrix(1 0 0 1 409.0534 445.2871)" class="st3 st4 st5">ada</text>
		</g>
	</g>
</g>
<g>
	<g>
		<defs>
			<rect id="SVGID_69_" x="318" y="399.3" width="246.3" height="26.8"/>
		</defs>
		<clipPath id="SVGID_70_">
			<use xlink:href="#SVGID_69_"  style="overflow:visible;"/>
		</clipPath>
		<g class="st35">
			<text transform="matrix(1 0 0 1 389.6997 418.5166)" class="st3 st4 st5">Ala</text>
			<text transform="matrix(1 0 0 1 410.5997 418.5166)" class="st3 st4 st5">sk</text>
			<text transform="matrix(1 0 0 1 426.6997 418.5166)" class="st3 st4 st5">a</text>
		</g>
	</g>
</g>
<g>
	<g>
		<defs>
			<rect id="SVGID_71_" x="318" y="372.6" width="224.6" height="26.8"/>
		</defs>
		<clipPath id="SVGID_72_">
			<use xlink:href="#SVGID_71_"  style="overflow:visible;"/>
		</clipPath>
		<g class="st36">
			<text transform="matrix(1 0 0 1 396.5308 391.7471)" class="st3 st4 st5">I</text>
			<text transform="matrix(1 0 0 1 401.3308 391.7471)" class="st3 st4 st5">daho</text>
		</g>
	</g>
</g>
<g>
	<g>
		<defs>
			<rect id="SVGID_73_" x="318" y="345.8" width="371.9" height="26.8"/>
		</defs>
		<clipPath id="SVGID_74_">
			<use xlink:href="#SVGID_73_"  style="overflow:visible;"/>
		</clipPath>
		<g class="st37">
			<text transform="matrix(1 0 0 1 347.8569 364.9766)" class="st3 st4 st5">W</text>
			<text transform="matrix(1 0 0 1 360.7569 364.9766)" class="st3 st4 st5">e</text>
			<text transform="matrix(1 0 0 1 368.7569 364.9766)" class="st3 st4 st5">st</text>
			<text transform="matrix(1 0 0 1 381.6569 364.9766)" class="st3 st4 st5"> </text>
			<text transform="matrix(1 0 0 1 384.8569 364.9766)" class="st3 st4 st5">Virginia</text>
		</g>
	</g>
</g>
<g>
	<g>
		<defs>
			<rect id="SVGID_75_" x="318" y="319" width="396" height="26.8"/>
		</defs>
		<clipPath id="SVGID_76_">
			<use xlink:href="#SVGID_75_"  style="overflow:visible;"/>
		</clipPath>
		<g class="st38">
			<text transform="matrix(1 0 0 1 340.606 338.2061)" class="st3 st4 st5">N</text>
			<text transform="matrix(1 0 0 1 350.306 338.2061)" class="st3 st4 st5">or</text>
			<text transform="matrix(1 0 0 1 363.106 338.2061)" class="st3 st4 st5">t</text>
			<text transform="matrix(1 0 0 1 368.006 338.2061)" class="st3 st4 st5">h</text>
			<text transform="matrix(1 0 0 1 376.006 338.2061)" class="st3 st4 st5"> </text>
			<text transform="matrix(1 0 0 1 380.806 338.2061)" class="st3 st4 st5">C</text>
			<text transform="matrix(1 0 0 1 390.506 338.2061)" class="st3 st4 st5">arolina</text>
		</g>
	</g>
</g>
<g>
	<g>
		<defs>
			<rect id="SVGID_77_" x="318" y="292.3" width="263.2" height="26.8"/>
		</defs>
		<clipPath id="SVGID_78_">
			<use xlink:href="#SVGID_77_"  style="overflow:visible;"/>
		</clipPath>
		<g class="st39">
			<text transform="matrix(1 0 0 1 383.6646 311.4365)" class="st3 st4 st5">Ari</text>
			<text transform="matrix(1 0 0 1 401.3646 311.4365)" class="st3 st4 st5">z</text>
			<text transform="matrix(1 0 0 1 409.3646 311.4365)" class="st3 st4 st5">ona</text>
		</g>
	</g>
</g>
<g>
	<g>
		<defs>
			<rect id="SVGID_79_" x="318" y="265.5" width="297" height="26.8"/>
		</defs>
		<clipPath id="SVGID_80_">
			<use xlink:href="#SVGID_79_"  style="overflow:visible;"/>
		</clipPath>
		<g class="st40">
			<text transform="matrix(1 0 0 1 373.2114 284.666)" class="st3 st4 st5">W</text>
			<text transform="matrix(1 0 0 1 386.1114 284.666)" class="st3 st4 st5">y</text>
			<text transform="matrix(1 0 0 1 394.1114 284.666)" class="st3 st4 st5">o</text>
			<text transform="matrix(1 0 0 1 402.2114 284.666)" class="st3 st4 st5">m</text>
			<text transform="matrix(1 0 0 1 413.5114 284.666)" class="st3 st4 st5">ing</text>
		</g>
	</g>
</g>
<g>
	<g>
		<defs>
			<rect id="SVGID_81_" x="318" y="238.7" width="260.9" height="26.8"/>
		</defs>
		<clipPath id="SVGID_82_">
			<use xlink:href="#SVGID_81_"  style="overflow:visible;"/>
		</clipPath>
		<g class="st41">
			<text transform="matrix(1 0 0 1 384.0581 257.8955)" class="st3 st4 st5">Kan</text>
			<text transform="matrix(1 0 0 1 409.8581 257.8955)" class="st3 st4 st5">s</text>
			<text transform="matrix(1 0 0 1 417.8581 257.8955)" class="st3 st4 st5">as</text>
		</g>
	</g>
</g>
<g>
	<g>
		<defs>
			<rect id="SVGID_83_" x="318" y="212" width="403.4" height="26.8"/>
		</defs>
		<clipPath id="SVGID_84_">
			<use xlink:href="#SVGID_83_"  style="overflow:visible;"/>
		</clipPath>
		<g class="st42">
			<text transform="matrix(1 0 0 1 337.7817 231.126)" class="st3 st4 st5">Sou</text>
			<text transform="matrix(1 0 0 1 363.5817 231.126)" class="st3 st4 st5">t</text>
			<text transform="matrix(1 0 0 1 368.3817 231.126)" class="st3 st4 st5">h</text>
			<text transform="matrix(1 0 0 1 376.3817 231.126)" class="st3 st4 st5"> </text>
			<text transform="matrix(1 0 0 1 379.6817 231.126)" class="st3 st4 st5">C</text>
			<text transform="matrix(1 0 0 1 389.2817 231.126)" class="st3 st4 st5">arolina</text>
		</g>
	</g>
</g>
<g>
	<g>
		<defs>
			<rect id="SVGID_85_" x="318" y="185.2" width="285" height="26.8"/>
		</defs>
		<clipPath id="SVGID_86_">
			<use xlink:href="#SVGID_85_"  style="overflow:visible;"/>
		</clipPath>
		<g class="st43">
			<text transform="matrix(1 0 0 1 376.8169 204.3555)" class="st3 st4 st5">M</text>
			<text transform="matrix(1 0 0 1 388.1169 204.3555)" class="st3 st4 st5">on</text>
			<text transform="matrix(1 0 0 1 404.2169 204.3555)" class="st3 st4 st5">t</text>
			<text transform="matrix(1 0 0 1 409.0169 204.3555)" class="st3 st4 st5">ana</text>
		</g>
	</g>
</g>
<g>
	<g>
		<defs>
			<rect id="SVGID_87_" x="318" y="158.4" width="355.8" height="26.8"/>
		</defs>
		<clipPath id="SVGID_88_">
			<use xlink:href="#SVGID_87_"  style="overflow:visible;"/>
		</clipPath>
		<g class="st44">
			<text transform="matrix(1 0 0 1 347.4302 177.585)" class="st3 st4 st5">All</text>
			<text transform="matrix(1 0 0 1 363.5302 177.585)" class="st3 st4 st5"> </text>
			<text transform="matrix(1 0 0 1 368.3302 177.585)" class="st3 st4 st5">50</text>
			<text transform="matrix(1 0 0 1 384.4302 177.585)" class="st3 st4 st5"> </text>
			<text transform="matrix(1 0 0 1 387.6302 177.585)" class="st3 st4 st5">S</text>
			<text transform="matrix(1 0 0 1 397.3302 177.585)" class="st3 st4 st5">t</text>
			<text transform="matrix(1 0 0 1 402.1302 177.585)" class="st3 st4 st5">a</text>
			<text transform="matrix(1 0 0 1 410.2302 177.585)" class="st3 st4 st5">t</text>
			<text transform="matrix(1 0 0 1 415.0302 177.585)" class="st3 st4 st5">e</text>
			<text transform="matrix(1 0 0 1 423.1302 177.585)" class="st3 st4 st5">s</text>
			<text transform="matrix(1 0 0 1 431.1302 177.585)" class="st3 st4 st5"> </text>
		</g>
	</g>
</g>
<g>
	<g>
		<defs>
			<rect id="SVGID_89_" x="318" y="85" width="1307.9" height="928"/>
		</defs>
		<clipPath id="SVGID_90_">
			<use xlink:href="#SVGID_89_"  style="overflow:visible;"/>
		</clipPath>
		<g class="st45">
			<text transform="matrix(1 0 0 1 738.5054 130.9658)" class="st3 st4 st46">Gay Marriage Legalization in U.S.</text>
		</g>
	</g>
	<g>
		<path class="st47" d="M318.9,1012.2"/>
		<path class="st47" d="M1625,1012.2"/>
		<path class="st47" d="M1625,85.9"/>
		<path class="st47" d="M318.9,85.9"/>
	</g>
</g>
</svg>
