<?xml version="1.0" encoding="utf-8"?>
<!-- Generator: Adobe Illustrator 20.1.0, SVG Export Plug-In . SVG Version: 6.00 Build 0)  -->
<svg version="1.1" id="Layer_1" xmlns="http://www.w3.org/2000/svg" xmlns:xlink="http://www.w3.org/1999/xlink" x="0px" y="0px"
	 viewBox="0 0 1920 1080" style="enable-background:new 0 0 1920 1080;" xml:space="preserve">
<style type="text/css">
	.st0{opacity:0;clip-path:url(#SVGID_2_);fill:#FFFFFF;}
	.st1{clip-path:url(#SVGID_4_);fill:none;stroke:#D9D9D8;stroke-linejoin:round;stroke-miterlimit:10;}
	.st2{fill:#5D9BD3;}
	.st3{clip-path:url(#SVGID_6_);fill:none;stroke:#D9D9D8;stroke-linejoin:round;stroke-miterlimit:10;}
	.st4{clip-path:url(#SVGID_8_);}
	.st5{fill:#595A5A;}
	.st6{font-family:'Helvetica';}
	.st7{font-size:26.168px;}
	.st8{clip-path:url(#SVGID_10_);}
	.st9{clip-path:url(#SVGID_12_);}
	.st10{clip-path:url(#SVGID_14_);}
	.st11{clip-path:url(#SVGID_16_);}
	.st12{clip-path:url(#SVGID_18_);}
	.st13{clip-path:url(#SVGID_20_);}
	.st14{clip-path:url(#SVGID_22_);}
	.st15{clip-path:url(#SVGID_24_);}
	.st16{clip-path:url(#SVGID_26_);}
	.st17{clip-path:url(#SVGID_28_);}
	.st18{clip-path:url(#SVGID_30_);}
	.st19{clip-path:url(#SVGID_32_);}
	.st20{clip-path:url(#SVGID_34_);}
	.st21{clip-path:url(#SVGID_36_);}
	.st22{clip-path:url(#SVGID_38_);}
	.st23{clip-path:url(#SVGID_40_);}
	.st24{clip-path:url(#SVGID_42_);}
	.st25{clip-path:url(#SVGID_44_);}
	.st26{clip-path:url(#SVGID_46_);}
	.st27{clip-path:url(#SVGID_48_);}
	.st28{clip-path:url(#SVGID_50_);}
	.st29{clip-path:url(#SVGID_52_);}
	.st30{fill:none;}
	.st31{font-size:24px;}
	.st32{clip-path:url(#SVGID_55_);}
	.st33{clip-path:url(#SVGID_56_);fill:none;stroke:#D9D9D8;stroke-linejoin:round;stroke-miterlimit:10;}
	.st34{font-size:36px;}
</style>
<g>
	<defs>
		<rect id="SVGID_1_" x="418.3" y="167.2" width="1046.7" height="630.9"/>
	</defs>
	<clipPath id="SVGID_2_">
		<use xlink:href="#SVGID_1_"  style="overflow:visible;"/>
	</clipPath>
	<rect x="418.3" y="167.2" class="st0" width="1046.7" height="630.9"/>
</g>
<g>
	<defs>
		<rect id="SVGID_3_" x="418.3" y="167.2" width="1046.7" height="628"/>
	</defs>
	<clipPath id="SVGID_4_">
		<use xlink:href="#SVGID_3_"  style="overflow:visible;"/>
	</clipPath>
	<path class="st1" d="M1428.7,287.9 M498.2,287.9 M1428.7,360.6 M498.2,360.6 M1428.7,433.3 M498.2,433.3 M1428.7,508.9
		 M498.2,508.9 M1428.7,581.6 M498.2,581.6 M1428.7,654.2 M498.2,654.2"/>
</g>
<g>
	<path class="st2" d="M1386.5,347.5h20.4v380.9h-20.4V347.5z M1325.4,347.5h17.4v380.9h-17.4V347.5z M1261.5,367.9h20.4v360.5h-20.4
		V367.9z M1200.4,391.1h20.4v337.3h-20.4V391.1z M1139.4,405.6h20.4v322.7h-20.4V405.6z M1078.3,426h17.4v302.4h-17.4V426z
		 M1014.3,449.3h20.4v279.1h-20.4V449.3z M953.3,492.9h20.4v235.5h-20.4V492.9z M892.2,478.3h17.4v250h-17.4V478.3z M831.2,492.9
		h17.4v235.5h-17.4V492.9z M767.2,501.6h20.4v226.8h-20.4V501.6z M706.1,478.3h20.4v250h-20.4V478.3z M645.1,522h17.4v206.4h-17.4
		V522z M581.1,522h20.4v206.4h-20.4V522z M520,492.9h20.4v235.5H520V492.9z"/>
</g>
<g>
	<defs>
		<rect id="SVGID_5_" x="418.3" y="167.2" width="1046.7" height="628"/>
	</defs>
	<clipPath id="SVGID_6_">
		<use xlink:href="#SVGID_5_"  style="overflow:visible;"/>
	</clipPath>
	<path class="st3" d="M1428.7,726.9"/>
	<path class="st3" d="M498.2,726.9"/>
</g>
<g>
	<defs>
		<rect id="SVGID_7_" x="418.3" y="167.2" width="1046.7" height="628"/>
	</defs>
	<clipPath id="SVGID_8_">
		<use xlink:href="#SVGID_7_"  style="overflow:visible;"/>
	</clipPath>
	<g class="st4">
		<text transform="matrix(1 0 0 1 459.0186 738.4756)" class="st5 st6 st7">0%</text>
	</g>
</g>
<g>
	<defs>
		<rect id="SVGID_9_" x="418.3" y="167.2" width="1046.7" height="628"/>
	</defs>
	<clipPath id="SVGID_10_">
		<use xlink:href="#SVGID_9_"  style="overflow:visible;"/>
	</clipPath>
	<g class="st8">
		<text transform="matrix(1 0 0 1 436.4697 665.0303)" class="st5 st6 st7">10%</text>
	</g>
</g>
<g>
	<defs>
		<rect id="SVGID_11_" x="418.3" y="167.2" width="1046.7" height="628"/>
	</defs>
	<clipPath id="SVGID_12_">
		<use xlink:href="#SVGID_11_"  style="overflow:visible;"/>
	</clipPath>
	<g class="st9">
		<text transform="matrix(1 0 0 1 436.4697 591.585)" class="st5 st6 st7">20%</text>
	</g>
</g>
<g>
	<defs>
		<rect id="SVGID_13_" x="418.3" y="167.2" width="1046.7" height="628"/>
	</defs>
	<clipPath id="SVGID_14_">
		<use xlink:href="#SVGID_13_"  style="overflow:visible;"/>
	</clipPath>
	<g class="st10">
		<text transform="matrix(1 0 0 1 436.4697 518.1387)" class="st5 st6 st7">30%</text>
	</g>
</g>
<g>
	<defs>
		<rect id="SVGID_15_" x="418.3" y="167.2" width="1046.7" height="628"/>
	</defs>
	<clipPath id="SVGID_16_">
		<use xlink:href="#SVGID_15_"  style="overflow:visible;"/>
	</clipPath>
	<g class="st11">
		<text transform="matrix(1 0 0 1 436.4697 444.6934)" class="st5 st6 st7">40%</text>
	</g>
</g>
<g>
	<defs>
		<rect id="SVGID_17_" x="418.3" y="167.2" width="1046.7" height="628"/>
	</defs>
	<clipPath id="SVGID_18_">
		<use xlink:href="#SVGID_17_"  style="overflow:visible;"/>
	</clipPath>
	<g class="st12">
		<text transform="matrix(1 0 0 1 436.4697 371.248)" class="st5 st6 st7">50%</text>
	</g>
</g>
<g>
	<defs>
		<rect id="SVGID_19_" x="418.3" y="167.2" width="1046.7" height="628"/>
	</defs>
	<clipPath id="SVGID_20_">
		<use xlink:href="#SVGID_19_"  style="overflow:visible;"/>
	</clipPath>
	<g class="st13">
		<text transform="matrix(1 0 0 1 436.4697 297.8018)" class="st5 st6 st7">60%</text>
	</g>
</g>
<g>
	<defs>
		<rect id="SVGID_21_" x="418.3" y="167.2" width="1046.7" height="628"/>
	</defs>
	<clipPath id="SVGID_22_">
		<use xlink:href="#SVGID_21_"  style="overflow:visible;"/>
	</clipPath>
	<g class="st14">
		<text transform="matrix(1 0 0 1 499.1807 771.1152)" class="st5 st6 st7"> ‘01</text>
	</g>
</g>
<g>
	<defs>
		<rect id="SVGID_23_" x="418.3" y="167.2" width="1046.7" height="628"/>
	</defs>
	<clipPath id="SVGID_24_">
		<use xlink:href="#SVGID_23_"  style="overflow:visible;"/>
	</clipPath>
	<g class="st15">
		<text transform="matrix(1 0 0 1 561.0498 771.1152)" class="st5 st6 st7"> ‘03</text>
	</g>
</g>
<g>
	<defs>
		<rect id="SVGID_25_" x="418.3" y="167.2" width="1046.7" height="628"/>
	</defs>
	<clipPath id="SVGID_26_">
		<use xlink:href="#SVGID_25_"  style="overflow:visible;"/>
	</clipPath>
	<g class="st16">
		<text transform="matrix(1 0 0 1 622.917 771.1152)" class="st5 st6 st7"> ‘04</text>
	</g>
</g>
<g>
	<defs>
		<rect id="SVGID_27_" x="418.3" y="167.2" width="1046.7" height="628"/>
	</defs>
	<clipPath id="SVGID_28_">
		<use xlink:href="#SVGID_27_"  style="overflow:visible;"/>
	</clipPath>
	<g class="st17">
		<text transform="matrix(1 0 0 1 684.7852 771.1152)" class="st5 st6 st7"> ‘05</text>
	</g>
</g>
<g>
	<defs>
		<rect id="SVGID_29_" x="418.3" y="167.2" width="1046.7" height="628"/>
	</defs>
	<clipPath id="SVGID_30_">
		<use xlink:href="#SVGID_29_"  style="overflow:visible;"/>
	</clipPath>
	<g class="st18">
		<text transform="matrix(1 0 0 1 746.6533 771.1152)" class="st5 st6 st7"> ‘06</text>
	</g>
</g>
<g>
	<defs>
		<rect id="SVGID_31_" x="418.3" y="167.2" width="1046.7" height="628"/>
	</defs>
	<clipPath id="SVGID_32_">
		<use xlink:href="#SVGID_31_"  style="overflow:visible;"/>
	</clipPath>
	<g class="st19">
		<text transform="matrix(1 0 0 1 808.5205 771.1152)" class="st5 st6 st7"> ‘07</text>
	</g>
</g>
<g>
	<defs>
		<rect id="SVGID_33_" x="418.3" y="167.2" width="1046.7" height="628"/>
	</defs>
	<clipPath id="SVGID_34_">
		<use xlink:href="#SVGID_33_"  style="overflow:visible;"/>
	</clipPath>
	<g class="st20">
		<text transform="matrix(1 0 0 1 870.3887 771.1152)" class="st5 st6 st7"> ‘08</text>
	</g>
</g>
<g>
	<defs>
		<rect id="SVGID_35_" x="418.3" y="167.2" width="1046.7" height="628"/>
	</defs>
	<clipPath id="SVGID_36_">
		<use xlink:href="#SVGID_35_"  style="overflow:visible;"/>
	</clipPath>
	<g class="st21">
		<text transform="matrix(1 0 0 1 932.2578 771.1152)" class="st5 st6 st7"> ‘09</text>
	</g>
</g>
<g>
	<defs>
		<rect id="SVGID_37_" x="418.3" y="167.2" width="1046.7" height="628"/>
	</defs>
	<clipPath id="SVGID_38_">
		<use xlink:href="#SVGID_37_"  style="overflow:visible;"/>
	</clipPath>
	<g class="st22">
		<text transform="matrix(1 0 0 1 994.126 771.1152)" class="st5 st6 st7"> ‘10</text>
	</g>
</g>
<g>
	<defs>
		<rect id="SVGID_39_" x="418.3" y="167.2" width="1046.7" height="628"/>
	</defs>
	<clipPath id="SVGID_40_">
		<use xlink:href="#SVGID_39_"  style="overflow:visible;"/>
	</clipPath>
	<g class="st23">
		<text transform="matrix(1 0 0 1 1055.9932 771.1152)" class="st5 st6 st7"> ‘11</text>
	</g>
</g>
<g>
	<defs>
		<rect id="SVGID_41_" x="418.3" y="167.2" width="1046.7" height="628"/>
	</defs>
	<clipPath id="SVGID_42_">
		<use xlink:href="#SVGID_41_"  style="overflow:visible;"/>
	</clipPath>
	<g class="st24">
		<text transform="matrix(1 0 0 1 1117.8613 771.1152)" class="st5 st6 st7"> ‘12</text>
	</g>
</g>
<g>
	<defs>
		<rect id="SVGID_43_" x="418.3" y="167.2" width="1046.7" height="628"/>
	</defs>
	<clipPath id="SVGID_44_">
		<use xlink:href="#SVGID_43_"  style="overflow:visible;"/>
	</clipPath>
	<g class="st25">
		<text transform="matrix(1 0 0 1 1179.7285 771.1152)" class="st5 st6 st7"> ‘13</text>
	</g>
</g>
<g>
	<defs>
		<rect id="SVGID_45_" x="418.3" y="167.2" width="1046.7" height="628"/>
	</defs>
	<clipPath id="SVGID_46_">
		<use xlink:href="#SVGID_45_"  style="overflow:visible;"/>
	</clipPath>
	<g class="st26">
		<text transform="matrix(1 0 0 1 1241.5977 771.1152)" class="st5 st6 st7"> ‘14</text>
	</g>
</g>
<g>
	<defs>
		<rect id="SVGID_47_" x="418.3" y="167.2" width="1046.7" height="628"/>
	</defs>
	<clipPath id="SVGID_48_">
		<use xlink:href="#SVGID_47_"  style="overflow:visible;"/>
	</clipPath>
	<g class="st27">
		<text transform="matrix(1 0 0 1 1303.4658 771.1152)" class="st5 st6 st7"> ‘15</text>
	</g>
</g>
<g>
	<defs>
		<rect id="SVGID_49_" x="418.3" y="167.2" width="1046.7" height="628"/>
	</defs>
	<clipPath id="SVGID_50_">
		<use xlink:href="#SVGID_49_"  style="overflow:visible;"/>
	</clipPath>
	<g class="st28">
		<text transform="matrix(1 0 0 1 1365.334 771.1152)" class="st5 st6 st7"> ‘16</text>
	</g>
</g>
<g>
	<defs>
		<polyline id="SVGID_51_" points="418.3,167.2 418.3,795.3 1465,795.3 1465,167.2 		"/>
	</defs>
	<clipPath id="SVGID_52_">
		<use xlink:href="#SVGID_51_"  style="overflow:visible;"/>
	</clipPath>
	<g class="st29">
	</g>
	<g class="st29">
		
			<rect x="329.3" y="274.3" transform="matrix(6.499582e-03 -1 1 6.499582e-03 -62.4337 750.7806)" class="st30" width="34.7" height="265"/>
		<text transform="matrix(1 0 0 1 305.3223 405.877)" class="st6 st31">Percent</text>
	</g>
	<g class="st29">
	</g>
</g>
<g>
	<defs>
		<path id="SVGID_53_" d="M1465,167.2"/>
	</defs>
	<defs>
		<polyline id="SVGID_54_" points="418.3,167.2 418.3,798.2 1465,798.2 		"/>
	</defs>
	<clipPath id="SVGID_55_">
		<use xlink:href="#SVGID_53_"  style="overflow:visible;"/>
	</clipPath>
	<clipPath id="SVGID_56_" class="st32">
		<use xlink:href="#SVGID_54_"  style="overflow:visible;"/>
	</clipPath>
	<polyline class="st33" points="1463.5,168.7 1463.5,796.7 419.7,796.7 419.7,168.7 	"/>
</g>
<rect x="752" y="798.2" class="st30" width="373" height="62.8"/>
<text transform="matrix(1 0 0 1 913.1523 815.4258)" class="st6 st31">Year</text>
<rect x="640" y="204" class="st30" width="665" height="118"/>
<text transform="matrix(1 0 0 1 689.3779 229.8838)" class="st6 st34">Men Who Approve of Gay Marriage</text>
</svg>
