<?xml version="1.0" encoding="utf-8"?>
<!-- Generator: Adobe Illustrator 20.1.0, SVG Export Plug-In . SVG Version: 6.00 Build 0)  -->
<svg version="1.1" id="Layer_1" xmlns="http://www.w3.org/2000/svg" xmlns:xlink="http://www.w3.org/1999/xlink" x="0px" y="0px"
	 viewBox="0 0 440 220" style="enable-background:new 0 0 440 220;" xml:space="preserve">
<style type="text/css">
	.st0{fill:#C00015;stroke:#FFFFFF;stroke-width:0.65;}
	.st1{fill:#00020C;stroke:#FFFFFF;stroke-width:0.65;}
	.st2{fill:#5B9BD5;}
	.st3{fill:none;}
	.st4{font-family:'MyriadPro-Bold';}
	.st5{font-size:14px;}
	.st6{font-size:12px;}
</style>
<g>
	<g>
		<g>
			<polygon class="st0" points="198.2,67.9 177.4,106.8 188.1,106.7 208.8,69.1 			"/>
			<polygon class="st0" points="241.1,67.9 261.7,106.8 251,106.8 230.5,69.1 			"/>
			<polygon class="st0" points="204.8,127 204.8,68.8 234.4,68.8 234.4,128.9 234.4,128.9 234.4,179.5 223.9,179.5 223.9,128.5 
				215.3,128.5 215.3,179.5 204.8,179.5 204.8,127 			"/>
			<g>
				<path class="st0" d="M207.2,54.8c0,7.7,5.7,14,12.8,14s12.8-6.3,12.8-14c0-7.7-5.7-14-12.8-14S207.2,47,207.2,54.8z"/>
			</g>
		</g>
	</g>
	<g>
		<g>
			<polygon class="st1" points="95.7,67.6 75,106.6 85.6,106.4 106.3,68.8 			"/>
			<polygon class="st1" points="138.6,67.6 159.3,106.5 148.6,106.6 128,68.8 			"/>
			<polygon class="st1" points="102.3,126.8 102.3,68.5 131.9,68.5 131.9,128.7 131.9,128.7 131.9,179.3 121.4,179.3 121.4,128.3 
				112.8,128.3 112.8,179.3 102.3,179.3 102.3,126.8 			"/>
			<g>
				<path class="st1" d="M104.8,54.5c0,7.7,5.7,14,12.8,14c7.1,0,12.8-6.3,12.8-14c0-7.7-5.7-14-12.8-14
					C110.5,40.5,104.8,46.8,104.8,54.5z"/>
			</g>
		</g>
	</g>
	<g>
		<g>
			<polygon class="st1" points="301.4,67.9 282.3,106.6 293,106.7 312,69.1 			"/>
			<polygon class="st1" points="344.3,67.9 365,106.8 354.4,106.7 333.7,69.1 			"/>
			<polygon class="st1" points="308,127 308,68.8 337.6,68.8 337.6,128.9 337.6,128.9 337.6,179.5 327.1,179.5 327.1,128.5 
				318.5,128.5 318.5,179.5 308,179.5 308,127 			"/>
			<g>
				<path class="st1" d="M310.4,54.8c0,7.7,5.7,14,12.8,14c7.1,0,12.8-6.3,12.8-14c0-7.7-5.7-14-12.8-14
					C316.2,40.7,310.4,47,310.4,54.8z"/>
			</g>
		</g>
	</g>
	<circle class="st0" cx="219.1" cy="114.1" r="27"/>
</g>
<rect x="433.8" y="385.1" class="st2" width="7" height="7"/>
<rect x="67.3" y="184.5" class="st3" width="309.5" height="32"/>
<text transform="matrix(1 0 0 1 69.3227 194.4395)"><tspan x="0" y="0" class="st0 st4 st5">ONE</tspan><tspan x="27.2" y="0" class="st4 st6"> in three American kids/teens is overweight or obese </tspan><tspan x="75.3" y="14.4" class="st4 st6">~American Heart Association </tspan></text>
</svg>
