<?xml version="1.0" encoding="utf-8"?>
<!-- Generator: Adobe Illustrator 20.1.0, SVG Export Plug-In . SVG Version: 6.00 Build 0)  -->
<svg version="1.1" id="Layer_1" xmlns="http://www.w3.org/2000/svg" xmlns:xlink="http://www.w3.org/1999/xlink" x="0px" y="0px"
	 viewBox="0 0 851.5 525" style="enable-background:new 0 0 851.5 525;" xml:space="preserve">
<style type="text/css">
	.st0{clip-path:url(#SVGID_2_);fill:#2100B4;}
	.st1{clip-path:url(#SVGID_4_);fill:#D4000B;}
	.st2{fill:#070400;}
	.st3{font-family:'Helvetica';}
	.st4{font-size:9px;}
	.st5{font-size:18px;}
	.st6{font-size:30px;}
	.st7{font-size:14px;}
	.st8{fill:#2100B4;}
	.st9{fill:#D4000B;}
</style>
<g>
	<g>
		<defs>
			<rect id="SVGID_1_" x="207.7" y="-23.5" width="669" height="439"/>
		</defs>
		<clipPath id="SVGID_2_">
			<use xlink:href="#SVGID_1_"  style="overflow:visible;"/>
		</clipPath>
		<path class="st0" d="M776.9,237.3h-552v-24h552V237.3z M656.8,300.3h-432l0.2-24h432L656.8,300.3z M558.9,363.3h-334v-25h334
			V363.3z"/>
	</g>
</g>
<g>
	<g>
		<defs>
			<rect id="SVGID_3_" x="207.7" y="-23.5" width="669" height="439"/>
		</defs>
		<clipPath id="SVGID_4_">
			<use xlink:href="#SVGID_3_"  style="overflow:visible;"/>
		</clipPath>
		<path class="st1" d="M579.9,213.5h-355l1-22.2h355L579.9,213.5z M699.9,276.5h-474v-25.2h474V276.5z M505.9,338.5h-281v-25.2h281
			V338.5z"/>
	</g>
</g>
<g>
	<text transform="matrix(1 0 0 1 564.4481 352.5004)" class="st2 st3 st4">17</text>
	<text transform="matrix(1 0 0 1 574.4481 352.5004)" class="st2 st3 st4">.</text>
	<text transform="matrix(1 0 0 1 577.4481 352.5004)" class="st2 st3 st4">5</text>
	<text transform="matrix(1 0 0 1 662.6185 290.0272)" class="st2 st3 st4">22</text>
	<text transform="matrix(1 0 0 1 672.6185 290.0272)" class="st2 st3 st4">.</text>
	<text transform="matrix(1 0 0 1 675.6185 290.0272)" class="st2 st3 st4">6</text>
	<text transform="matrix(1 0 0 1 784.8632 228.9433)" class="st2 st3 st4">28</text>
	<text transform="matrix(1 0 0 1 794.8632 228.9433)" class="st2 st3 st4">.</text>
	<text transform="matrix(1 0 0 1 797.8632 228.9433)" class="st2 st3 st4">9</text>
	<text transform="matrix(1 0 0 1 508.7634 330.5353)" class="st2 st3 st4">14</text>
	<text transform="matrix(1 0 0 1 518.7634 330.5353)" class="st2 st3 st4">.</text>
	<text transform="matrix(1 0 0 1 521.7634 330.5353)" class="st2 st3 st4">7</text>
	<text transform="matrix(1 0 0 1 707.6083 268.0625)" class="st2 st3 st4">24</text>
	<text transform="matrix(1 0 0 1 717.6083 268.0625)" class="st2 st3 st4">.</text>
	<text transform="matrix(1 0 0 1 720.6083 268.0625)" class="st2 st3 st4">8</text>
	<text transform="matrix(1 0 0 1 587.9631 205.5894)" class="st2 st3 st4">18</text>
	<text transform="matrix(1 0 0 1 597.9631 205.5894)" class="st2 st3 st4">.</text>
	<text transform="matrix(1 0 0 1 600.9631 205.5894)" class="st2 st3 st4">6</text>
	<text transform="matrix(1 0 0 1 93.652 330.5354)" class="st2 st3 st5">Non</text>
	<text transform="matrix(1 0 0 1 126.652 330.5354)" class="st2 st3 st5">-</text>
	<text transform="matrix(1 0 0 1 132.652 330.5354)" class="st2 st3 st5">Hispanic </text>
	<text transform="matrix(1 0 0 1 113.1523 352.4999)" class="st2 st3 st5">White</text>
	<text transform="matrix(1 0 0 1 93.1524 268.0263)" class="st2 st3 st5">Non</text>
	<text transform="matrix(1 0 0 1 129.2484 268.0262)" class="st2 st3 st5">-</text>
	<text transform="matrix(1 0 0 1 135.1525 268.062)" class="st2 st3 st5">Hispanic </text>
	<text transform="matrix(1 0 0 1 113.1523 290.027)" class="st2 st3 st5">Black</text>
	<text transform="matrix(1 0 0 1 66.6375 216.3613)" class="st2 st3 st5">Mexican</text>
	<text transform="matrix(1 0 0 1 133.6375 216.3613)" class="st2 st3 st5"> </text>
	<text transform="matrix(1 0 0 1 137.6375 216.3613)" class="st2 st3 st5">American</text>
	<text transform="matrix(1 0 0 1 225.9634 156.5574)" class="st2 st3 st6">O</text>
	<text transform="matrix(1 0 0 1 248.9634 156.5574)" class="st2 st3 st6">be</text>
	<text transform="matrix(1 0 0 1 282.9634 156.5574)" class="st2 st3 st6">s</text>
	<text transform="matrix(1 0 0 1 297.9634 156.5574)" class="st2 st3 st6">i</text>
	<text transform="matrix(1 0 0 1 304.9634 156.5574)" class="st2 st3 st6">t</text>
	<text transform="matrix(1 0 0 1 312.9634 156.5574)" class="st2 st3 st6">y</text>
	<text transform="matrix(1 0 0 1 327.9634 156.5574)" class="st2 st3 st6"> </text>
	<text transform="matrix(1 0 0 1 335.9634 156.5574)" class="st2 st3 st6">a</text>
	<text transform="matrix(1 0 0 1 352.9634 156.5574)" class="st2 st3 st6">m</text>
	<text transform="matrix(1 0 0 1 377.9634 156.5574)" class="st2 st3 st6">ong</text>
	<text transform="matrix(1 0 0 1 428.8634 156.5574)" class="st2 st3 st6">s</text>
	<text transform="matrix(1 0 0 1 443.8634 156.5574)" class="st2 st3 st6">t</text>
	<text transform="matrix(1 0 0 1 451.8634 156.5574)" class="st2 st3 st6"> </text>
	<text transform="matrix(1 0 0 1 458.8634 156.5574)" class="st2 st3 st6">c</text>
	<text transform="matrix(1 0 0 1 473.8634 156.5574)" class="st2 st3 st6">h</text>
	<text transform="matrix(1 0 0 1 490.8634 156.5574)" class="st2 st3 st6">il</text>
	<text transform="matrix(1 0 0 1 504.8634 156.5574)" class="st2 st3 st6">d</text>
	<text transform="matrix(1 0 0 1 521.8634 156.5574)" class="st2 st3 st6">r</text>
	<text transform="matrix(1 0 0 1 531.8634 156.5574)" class="st2 st3 st6">en</text>
	<text transform="matrix(1 0 0 1 565.7634 156.5574)" class="st2 st3 st6"> </text>
	<text transform="matrix(1 0 0 1 572.8634 156.5574)" class="st2 st3 st6">2</text>
	<text transform="matrix(1 0 0 1 589.7634 156.5574)" class="st2 st3 st6"> </text>
	<text transform="matrix(1 0 0 1 597.9633 156.5574)" class="st2 st3 st6">-</text>
	<text transform="matrix(1 0 0 1 615.9633 156.5574)" class="st2 st3 st6">1</text>
	<text transform="matrix(1 0 0 1 632.9633 156.5574)" class="st2 st3 st6">9</text>
	<text transform="matrix(1 0 0 1 328.6801 392.0571)" class="st2 st3 st7">F</text>
	<text transform="matrix(1 0 0 1 337.6801 392.0571)" class="st2 st3 st7">e</text>
	<text transform="matrix(1 0 0 1 345.6801 392.0571)" class="st2 st3 st7">m</text>
	<text transform="matrix(1 0 0 1 357.6801 392.0571)" class="st2 st3 st7">a</text>
	<text transform="matrix(1 0 0 1 365.5801 392.0571)" class="st2 st3 st7">l</text>
	<text transform="matrix(1 0 0 1 368.5801 392.0571)" class="st2 st3 st7">e</text>
	<rect x="433.8" y="385.1" class="st8" width="7" height="7"/>
	<text transform="matrix(1 0 0 1 399.6357 392.0569)" class="st2 st3 st7">M</text>
	<text transform="matrix(1 0 0 1 411.6357 392.0569)" class="st2 st3 st7">a</text>
	<text transform="matrix(1 0 0 1 419.6357 392.0569)" class="st2 st3 st7">l</text>
	<text transform="matrix(1 0 0 1 422.6357 392.0569)" class="st2 st3 st7">e</text>
</g>
<rect x="379.1" y="385.1" class="st9" width="7" height="7"/>
</svg>
