<?xml version="1.0" encoding="utf-8"?>
<!-- Generator: Adobe Illustrator 20.1.0, SVG Export Plug-In . SVG Version: 6.00 Build 0)  -->
<svg version="1.1" id="Layer_1" xmlns="http://www.w3.org/2000/svg" xmlns:xlink="http://www.w3.org/1999/xlink" x="0px" y="0px"
	 viewBox="0 0 1920 1080" style="enable-background:new 0 0 1920 1080;" xml:space="preserve">
<style type="text/css">
	.st0{opacity:0;fill:#FFFFFF;}
	.st1{fill:#FFFFFF;}
	.st2{fill:#FFF200;}
	.st3{fill:none;stroke:#FFFFFF;stroke-width:2;stroke-linejoin:round;stroke-miterlimit:10;}
	.st4{fill:#009444;}
	.st5{fill:#ED1C24;}
	.st6{fill:#F7941D;}
	.st7{fill:#414141;}
	.st8{font-family:'Helvetica';}
	.st9{font-size:36px;}
	.st10{fill:#FFDE17;}
	.st11{fill:#595A5A;}
	.st12{font-size:24px;}
	.st13{letter-spacing:-1;}
	.st14{fill:#00A14B;}
	.st15{letter-spacing:1;}
</style>
<g>
	<rect x="396" y="167" class="st0" width="1067.6" height="706"/>
	<rect x="396" y="167" class="st1" width="1067.6" height="706"/>
	<path class="st2" d="M929.8,237.8c156.5,0,283.4,126.9,283.4,283.4c0,52.6-14.6,104.1-42.2,148.8L929.8,521.2V237.8z"/>
	<path class="st3" d="M929.8,237.8c156.5,0,283.4,126.9,283.4,283.4c0,52.6-14.6,104.1-42.2,148.8L929.8,521.2V237.8z"/>
	<path class="st4" d="M1171,670c-82.2,133.2-256.8,174.6-390,92.4c-11.7-7.2-22.9-15.3-33.4-24.1l182.2-217.1L1171,670z"/>
	<path class="st3" d="M1171,670c-82.2,133.2-256.8,174.6-390,92.4c-11.7-7.2-22.9-15.3-33.4-24.1l182.2-217.1L1171,670z"/>
	<path class="st5" d="M747.6,738.3c-98.3-82.5-128.9-220.7-74.7-336.9l256.9,119.8L747.6,738.3z"/>
	<path class="st3" d="M747.6,738.3c-98.3-82.5-128.9-220.7-74.7-336.9l256.9,119.8L747.6,738.3z"/>
	<path class="st6" d="M672.9,401.4c46.6-99.8,146.7-163.7,256.9-163.7v283.4L672.9,401.4z"/>
	<path class="st3" d="M672.9,401.4c46.6-99.8,146.7-163.7,256.9-163.7v283.4L672.9,401.4z"/>
	<text transform="matrix(1 0 0 1 1036.0107 456.3267)" class="st7 st8 st9">73%</text>
	<text transform="matrix(1 0 0 1 921.835 694.3066)" class="st7 st8 st9">59%</text>
	<text transform="matrix(1 0 0 1 730.8945 570.0684)" class="st7 st8 st9">45%</text>
	<text transform="matrix(1 0 0 1 801.1104 384.8677)" class="st7 st8 st9">39%</text>
	<rect x="721.6" y="838.6" class="st10" width="8.6" height="8.6"/>
	<rect x="779.9" y="838.6" class="st3" width="8.6" height="8.6"/>
	<text transform="matrix(1 0 0 1 734.6455 849.3223)"><tspan x="0" y="0" class="st11 st8 st12 st13">M</tspan><tspan x="18.7" y="0" class="st11 st8 st12">illennial </tspan></text>
	<rect x="849.6" y="838.6" class="st14" width="8.6" height="8.6"/>
	<rect x="876.4" y="838.6" class="st3" width="8.6" height="8.6"/>
	<text transform="matrix(1 0 0 1 863.1805 849.3223)"><tspan x="0" y="0" class="st11 st8 st12">Gen</tspan><tspan x="45.4" y="0" class="st11 st8 st12 st15"> </tspan><tspan x="53.4" y="0" class="st11 st8 st12">X</tspan></text>
	<rect x="948.7" y="838.6" class="st5" width="8.6" height="8.6"/>
	<rect x="948.7" y="838.6" class="st3" width="8.6" height="8.6"/>
	<text transform="matrix(1 0 0 1 960 849.3223)"><tspan x="0" y="0" class="st11 st8 st12">Boo</tspan><tspan x="42.7" y="0" class="st11 st8 st12 st13">m</tspan><tspan x="61.4" y="0" class="st11 st8 st12">er</tspan></text>
	<rect x="1060.9" y="838.6" class="st6" width="8.6" height="8.6"/>
	<text transform="matrix(1 0 0 1 1071.478 849.3223)"><tspan x="0" y="0" class="st11 st8 st12">Silen</tspan><tspan x="53.4" y="0" class="st11 st8 st12 st15">t</tspan><tspan x="61.4" y="0" class="st11 st8 st12"> </tspan></text>
</g>
</svg>
