<?xml version="1.0" encoding="utf-8"?>
<!-- Generator: Adobe Illustrator 20.1.0, SVG Export Plug-In . SVG Version: 6.00 Build 0)  -->
<svg version="1.1" id="Layer_1" xmlns="http://www.w3.org/2000/svg" xmlns:xlink="http://www.w3.org/1999/xlink" x="0px" y="0px"
	 viewBox="0 0 1920 1080" style="enable-background:new 0 0 1920 1080;" xml:space="preserve">
<style type="text/css">
	.st0{opacity:0;clip-path:url(#SVGID_2_);fill:#FFFFFF;}
	.st1{clip-path:url(#SVGID_4_);fill:none;stroke:#D9D9D8;stroke-linejoin:round;stroke-miterlimit:10;}
	.st2{clip-path:url(#SVGID_6_);fill:#F06491;}
	.st3{clip-path:url(#SVGID_8_);fill:none;stroke:#D9D9D8;stroke-linejoin:round;stroke-miterlimit:10;}
	.st4{clip-path:url(#SVGID_10_);}
	.st5{fill:#595A5A;}
	.st6{font-family:'Helvetica';}
	.st7{font-size:26.9571px;}
	.st8{clip-path:url(#SVGID_12_);}
	.st9{clip-path:url(#SVGID_14_);}
	.st10{clip-path:url(#SVGID_16_);}
	.st11{clip-path:url(#SVGID_18_);}
	.st12{clip-path:url(#SVGID_20_);}
	.st13{clip-path:url(#SVGID_22_);}
	.st14{clip-path:url(#SVGID_24_);}
	.st15{clip-path:url(#SVGID_26_);}
	.st16{clip-path:url(#SVGID_28_);}
	.st17{clip-path:url(#SVGID_30_);}
	.st18{clip-path:url(#SVGID_32_);}
	.st19{clip-path:url(#SVGID_34_);}
	.st20{clip-path:url(#SVGID_36_);}
	.st21{clip-path:url(#SVGID_38_);}
	.st22{clip-path:url(#SVGID_40_);}
	.st23{clip-path:url(#SVGID_42_);}
	.st24{clip-path:url(#SVGID_44_);}
	.st25{clip-path:url(#SVGID_46_);}
	.st26{clip-path:url(#SVGID_48_);}
	.st27{clip-path:url(#SVGID_50_);}
	.st28{clip-path:url(#SVGID_52_);}
	.st29{clip-path:url(#SVGID_54_);}
	.st30{clip-path:url(#SVGID_56_);}
	.st31{fill:none;}
	.st32{font-size:36px;}
	.st33{font-size:24px;}
</style>
<g>
	<defs>
		<rect id="SVGID_1_" x="427" y="199" width="1078.3" height="650"/>
	</defs>
	<clipPath id="SVGID_2_">
		<use xlink:href="#SVGID_1_"  style="overflow:visible;"/>
	</clipPath>
	<rect x="427" y="199" class="st0" width="1078.3" height="650"/>
</g>
<g>
	<defs>
		<rect id="SVGID_3_" x="427" y="199" width="1078.3" height="647"/>
	</defs>
	<clipPath id="SVGID_4_">
		<use xlink:href="#SVGID_3_"  style="overflow:visible;"/>
	</clipPath>
	<path class="st1" d="M1458.9,338.3 M494.4,338.3 M1458.9,404.2 M494.4,404.2 M1458.9,467.1 M494.4,467.1 M1458.9,533 M494.4,533
		 M1458.9,595.9 M494.4,595.9 M1458.9,661.8 M494.4,661.8 M1458.9,727.7 M494.4,727.7"/>
</g>
<g>
	<defs>
		<polyline id="SVGID_5_" points="492.9,336.8 492.9,792.1 1457.4,792.1 1457.4,336.8 		"/>
	</defs>
	<clipPath id="SVGID_6_">
		<use xlink:href="#SVGID_5_"  style="overflow:visible;"/>
	</clipPath>
	<path class="st2" d="M1415.4,417.7h21v374.4h-21V417.7z M1352.5,417.7h18v374.4h-18V417.7z M1286.6,435.6h21v356.4h-21V435.6z
		 M1223.7,447.6h18v344.5h-18V447.6z M1157.8,453.6h21v338.5h-21V453.6z M1094.9,462.6h21v329.5h-21V462.6z M1032,492.5h18v299.5
		h-18V492.5z M966.1,525.5h21v266.6h-21V525.5z M903.2,513.5h18v278.6h-18V513.5z M837.3,525.5h21v266.6h-21V525.5z M774.4,540.5h21
		v251.6h-21V540.5z M708.6,540.5h21v251.6h-21V540.5z M645.7,570.4h21v221.6h-21V570.4z M582.8,558.4h18v233.6h-18V558.4z
		 M516.9,546.4h21v245.6h-21V546.4z"/>
</g>
<g>
	<defs>
		<rect id="SVGID_7_" x="427" y="199" width="1078.3" height="647"/>
	</defs>
	<clipPath id="SVGID_8_">
		<use xlink:href="#SVGID_7_"  style="overflow:visible;"/>
	</clipPath>
	<path class="st3" d="M1458.9,790.6"/>
	<path class="st3" d="M494.4,790.6"/>
</g>
<g>
	<defs>
		<rect id="SVGID_9_" x="427" y="199" width="1078.3" height="647"/>
	</defs>
	<clipPath id="SVGID_10_">
		<use xlink:href="#SVGID_9_"  style="overflow:visible;"/>
	</clipPath>
	<g class="st4">
		<text transform="matrix(1 0 0 1 453.9873 802.2393)" class="st5 st6 st7">0%</text>
	</g>
</g>
<g>
	<defs>
		<rect id="SVGID_11_" x="427" y="199" width="1078.3" height="647"/>
	</defs>
	<clipPath id="SVGID_12_">
		<use xlink:href="#SVGID_11_"  style="overflow:visible;"/>
	</clipPath>
	<g class="st8">
		<text transform="matrix(1 0 0 1 430.7598 737.5381)" class="st5 st6 st7">10%</text>
	</g>
</g>
<g>
	<defs>
		<rect id="SVGID_13_" x="427" y="199" width="1078.3" height="647"/>
	</defs>
	<clipPath id="SVGID_14_">
		<use xlink:href="#SVGID_13_"  style="overflow:visible;"/>
	</clipPath>
	<g class="st9">
		<text transform="matrix(1 0 0 1 430.7598 672.835)" class="st5 st6 st7">20%</text>
	</g>
</g>
<g>
	<defs>
		<rect id="SVGID_15_" x="427" y="199" width="1078.3" height="647"/>
	</defs>
	<clipPath id="SVGID_16_">
		<use xlink:href="#SVGID_15_"  style="overflow:visible;"/>
	</clipPath>
	<g class="st10">
		<text transform="matrix(1 0 0 1 430.7598 608.1328)" class="st5 st6 st7">30%</text>
	</g>
</g>
<g>
	<defs>
		<rect id="SVGID_17_" x="427" y="199" width="1078.3" height="647"/>
	</defs>
	<clipPath id="SVGID_18_">
		<use xlink:href="#SVGID_17_"  style="overflow:visible;"/>
	</clipPath>
	<g class="st11">
		<text transform="matrix(1 0 0 1 430.7598 543.4307)" class="st5 st6 st7">40%</text>
	</g>
</g>
<g>
	<defs>
		<rect id="SVGID_19_" x="427" y="199" width="1078.3" height="647"/>
	</defs>
	<clipPath id="SVGID_20_">
		<use xlink:href="#SVGID_19_"  style="overflow:visible;"/>
	</clipPath>
	<g class="st12">
		<text transform="matrix(1 0 0 1 430.7598 478.7295)" class="st5 st6 st7">50%</text>
	</g>
</g>
<g>
	<defs>
		<rect id="SVGID_21_" x="427" y="199" width="1078.3" height="647"/>
	</defs>
	<clipPath id="SVGID_22_">
		<use xlink:href="#SVGID_21_"  style="overflow:visible;"/>
	</clipPath>
	<g class="st13">
		<text transform="matrix(1 0 0 1 430.7598 414.0264)" class="st5 st6 st7">60%</text>
	</g>
</g>
<g>
	<defs>
		<rect id="SVGID_23_" x="427" y="199" width="1078.3" height="647"/>
	</defs>
	<clipPath id="SVGID_24_">
		<use xlink:href="#SVGID_23_"  style="overflow:visible;"/>
	</clipPath>
	<g class="st14">
		<text transform="matrix(1 0 0 1 430.7598 349.3242)" class="st5 st6 st7">70%</text>
	</g>
</g>
<g>
	<defs>
		<rect id="SVGID_25_" x="427" y="199" width="1078.3" height="647"/>
	</defs>
	<clipPath id="SVGID_26_">
		<use xlink:href="#SVGID_25_"  style="overflow:visible;"/>
	</clipPath>
	<g class="st15">
		<text transform="matrix(1 0 0 1 497.7275 835.8633)" class="st5 st6 st7"> ‘01</text>
	</g>
</g>
<g>
	<defs>
		<rect id="SVGID_27_" x="427" y="199" width="1078.3" height="647"/>
	</defs>
	<clipPath id="SVGID_28_">
		<use xlink:href="#SVGID_27_"  style="overflow:visible;"/>
	</clipPath>
	<g class="st16">
		<text transform="matrix(1 0 0 1 561.8789 835.8633)" class="st5 st6 st7"> ‘03</text>
	</g>
</g>
<g>
	<defs>
		<rect id="SVGID_29_" x="427" y="199" width="1078.3" height="647"/>
	</defs>
	<clipPath id="SVGID_30_">
		<use xlink:href="#SVGID_29_"  style="overflow:visible;"/>
	</clipPath>
	<g class="st17">
		<text transform="matrix(1 0 0 1 626.0303 835.8633)" class="st5 st6 st7"> ‘04</text>
	</g>
</g>
<g>
	<defs>
		<rect id="SVGID_31_" x="427" y="199" width="1078.3" height="647"/>
	</defs>
	<clipPath id="SVGID_32_">
		<use xlink:href="#SVGID_31_"  style="overflow:visible;"/>
	</clipPath>
	<g class="st18">
		<text transform="matrix(1 0 0 1 690.1816 835.8633)" class="st5 st6 st7"> ‘05</text>
	</g>
</g>
<g>
	<defs>
		<rect id="SVGID_33_" x="427" y="199" width="1078.3" height="647"/>
	</defs>
	<clipPath id="SVGID_34_">
		<use xlink:href="#SVGID_33_"  style="overflow:visible;"/>
	</clipPath>
	<g class="st19">
		<text transform="matrix(1 0 0 1 754.332 835.8633)" class="st5 st6 st7"> ‘06</text>
	</g>
</g>
<g>
	<defs>
		<rect id="SVGID_35_" x="427" y="199" width="1078.3" height="647"/>
	</defs>
	<clipPath id="SVGID_36_">
		<use xlink:href="#SVGID_35_"  style="overflow:visible;"/>
	</clipPath>
	<g class="st20">
		<text transform="matrix(1 0 0 1 818.4834 835.8633)" class="st5 st6 st7"> ‘07</text>
	</g>
</g>
<g>
	<defs>
		<rect id="SVGID_37_" x="427" y="199" width="1078.3" height="647"/>
	</defs>
	<clipPath id="SVGID_38_">
		<use xlink:href="#SVGID_37_"  style="overflow:visible;"/>
	</clipPath>
	<g class="st21">
		<text transform="matrix(1 0 0 1 882.6348 835.8633)" class="st5 st6 st7"> ‘08</text>
	</g>
</g>
<g>
	<defs>
		<rect id="SVGID_39_" x="427" y="199" width="1078.3" height="647"/>
	</defs>
	<clipPath id="SVGID_40_">
		<use xlink:href="#SVGID_39_"  style="overflow:visible;"/>
	</clipPath>
	<g class="st22">
		<text transform="matrix(1 0 0 1 946.7861 835.8633)" class="st5 st6 st7"> ‘09</text>
	</g>
</g>
<g>
	<defs>
		<rect id="SVGID_41_" x="427" y="199" width="1078.3" height="647"/>
	</defs>
	<clipPath id="SVGID_42_">
		<use xlink:href="#SVGID_41_"  style="overflow:visible;"/>
	</clipPath>
	<g class="st23">
		<text transform="matrix(1 0 0 1 1010.9375 835.8633)" class="st5 st6 st7"> ‘10</text>
	</g>
</g>
<g>
	<defs>
		<rect id="SVGID_43_" x="427" y="199" width="1078.3" height="647"/>
	</defs>
	<clipPath id="SVGID_44_">
		<use xlink:href="#SVGID_43_"  style="overflow:visible;"/>
	</clipPath>
	<g class="st24">
		<text transform="matrix(1 0 0 1 1075.0889 835.8633)" class="st5 st6 st7"> ‘11</text>
	</g>
</g>
<g>
	<defs>
		<rect id="SVGID_45_" x="427" y="199" width="1078.3" height="647"/>
	</defs>
	<clipPath id="SVGID_46_">
		<use xlink:href="#SVGID_45_"  style="overflow:visible;"/>
	</clipPath>
	<g class="st25">
		<text transform="matrix(1 0 0 1 1139.2402 835.8633)" class="st5 st6 st7"> ‘12</text>
	</g>
</g>
<g>
	<defs>
		<rect id="SVGID_47_" x="427" y="199" width="1078.3" height="647"/>
	</defs>
	<clipPath id="SVGID_48_">
		<use xlink:href="#SVGID_47_"  style="overflow:visible;"/>
	</clipPath>
	<g class="st26">
		<text transform="matrix(1 0 0 1 1203.3906 835.8633)" class="st5 st6 st7"> ‘13</text>
	</g>
</g>
<g>
	<defs>
		<rect id="SVGID_49_" x="427" y="199" width="1078.3" height="647"/>
	</defs>
	<clipPath id="SVGID_50_">
		<use xlink:href="#SVGID_49_"  style="overflow:visible;"/>
	</clipPath>
	<g class="st27">
		<text transform="matrix(1 0 0 1 1267.542 835.8633)" class="st5 st6 st7"> ‘14</text>
	</g>
</g>
<g>
	<defs>
		<rect id="SVGID_51_" x="427" y="199" width="1078.3" height="647"/>
	</defs>
	<clipPath id="SVGID_52_">
		<use xlink:href="#SVGID_51_"  style="overflow:visible;"/>
	</clipPath>
	<g class="st28">
		<text transform="matrix(1 0 0 1 1331.6934 835.8633)" class="st5 st6 st7"> ‘15</text>
	</g>
</g>
<g>
	<defs>
		<rect id="SVGID_53_" x="427" y="199" width="1078.3" height="647"/>
	</defs>
	<clipPath id="SVGID_54_">
		<use xlink:href="#SVGID_53_"  style="overflow:visible;"/>
	</clipPath>
	<g class="st29">
		<text transform="matrix(1 0 0 1 1395.8447 835.8633)" class="st5 st6 st7"> ‘16</text>
	</g>
</g>
<g>
	<defs>
		<rect id="SVGID_55_" x="427" y="199" width="1078.3" height="647"/>
	</defs>
	<clipPath id="SVGID_56_">
		<use xlink:href="#SVGID_55_"  style="overflow:visible;"/>
	</clipPath>
	<g class="st30">
	</g>
</g>
<g>
	<defs>
		<polyline id="SVGID_57_" points="427,199 427,849 1505.3,849 1505.3,199 		"/>
	</defs>
	<clipPath id="SVGID_58_">
		<use xlink:href="#SVGID_57_"  style="overflow:visible;"/>
	</clipPath>
</g>
<rect x="673" y="248" class="st31" width="632" height="122"/>
<text transform="matrix(1 0 0 1 678.8779 273.8838)" class="st6 st32">Women Who Approve of Gay Marriage </text>
<rect x="857" y="871" class="st31" width="206" height="59"/>
<text transform="matrix(1 0 0 1 934.6523 888.2559)" class="st6 st33">Year</text>
</svg>
